<svg width="32" height="33" viewBox="0 0 32 33" fill="none" xmlns="http://www.w3.org/2000/svg">
<g clip-path="url(#clip0_2885_5806)">
<path d="M7.48403 29.4778C6.01399 29.478 4.60283 28.9001 3.55514 27.869L3.43958 27.7534C2.91319 27.2398 2.49493 26.6259 2.20945 25.9481C1.92398 25.2703 1.77706 24.5422 1.77736 23.8067C1.7755 23.0105 1.93168 22.2218 2.23684 21.4863C2.54201 20.7509 2.9901 20.0833 3.55514 19.5223L17.3329 5.89562C18.7328 4.43808 20.6492 3.58873 22.6693 3.53054C24.6893 3.47235 26.6514 4.20997 28.1329 5.58451C28.8011 6.25099 29.3299 7.04381 29.6885 7.91674C30.0471 8.78967 30.2284 9.72525 30.2218 10.669C30.2139 11.7229 29.9978 12.7649 29.5859 13.7351C29.1741 14.7053 28.5745 15.5845 27.8218 16.3223L15.4396 28.589C15.3626 28.6925 15.264 28.778 15.1507 28.8396C15.0373 28.9012 14.9119 28.9374 14.7832 28.9457C14.6544 28.954 14.5254 28.9341 14.4051 28.8875C14.2848 28.8409 14.1761 28.7687 14.0865 28.6758C13.9969 28.583 13.9286 28.4717 13.8864 28.3498C13.8441 28.228 13.8289 28.0983 13.8418 27.9699C13.8546 27.8416 13.8953 27.7175 13.9609 27.6065C14.0266 27.4954 14.1156 27.3999 14.2218 27.3267L26.5685 15.0601C27.1548 14.4877 27.6224 13.8051 27.9442 13.0516C28.2661 12.298 28.4359 11.4883 28.444 10.669C28.4505 9.95984 28.3154 9.25656 28.0468 8.60027C27.7782 7.94397 27.3814 7.34783 26.8796 6.84673C25.731 5.80039 24.2175 5.24675 22.6649 5.30493C21.1122 5.36312 19.6444 6.02847 18.5774 7.15784L4.84403 20.7845C4.43932 21.1775 4.11693 21.6471 3.89564 22.166C3.67435 22.6849 3.5586 23.2426 3.55514 23.8067C3.55324 24.302 3.64969 24.7928 3.83889 25.2506C4.0281 25.7083 4.3063 26.124 4.65736 26.4734L4.77292 26.589C5.56825 27.3213 6.61937 27.7121 7.69998 27.6772C8.78059 27.6423 9.80429 27.1845 10.5507 26.4023L22.4174 14.669C22.6418 14.4421 22.8187 14.1727 22.9377 13.8766C23.0568 13.5805 23.1156 13.2636 23.1107 12.9445C23.1126 12.6674 23.0594 12.3926 22.9541 12.1362C22.8488 11.8798 22.6936 11.647 22.4974 11.4512C22.0485 11.0395 21.4557 10.8209 20.847 10.8426C20.2383 10.8642 19.6626 11.1243 19.244 11.5667L11.0662 19.6734C10.8989 19.8396 10.6723 19.9325 10.4364 19.9317C10.2006 19.9308 9.97467 19.8363 9.80847 19.669C9.64227 19.5016 9.54937 19.275 9.5502 19.0391C9.55103 18.8033 9.64553 18.5774 9.81291 18.4112L18.0262 10.2778C18.7791 9.50658 19.805 9.06219 20.8826 9.04058C21.9602 9.01896 23.0031 9.42184 23.7862 10.1623C24.1464 10.529 24.4295 10.964 24.6188 11.4419C24.8081 11.9197 24.8998 12.4307 24.8885 12.9445C24.8875 13.4979 24.7762 14.0455 24.561 14.5552C24.3458 15.065 24.031 15.5268 23.6351 15.9134L11.804 27.6823C10.6573 28.8272 9.10451 29.4726 7.48403 29.4778Z" />
</g>
<defs>
<clipPath id="clip0_2885_5806">
<rect width="32" height="32" fill="white" transform="translate(0 0.5)"/>
</clipPath>
</defs>
</svg>
