<svg width="23" height="23" viewBox="0 0 18 17" fill="none" xmlns="http://www.w3.org/2000/svg">
<path d="M11.1239 8.49967L17.0614 2.56217C17.3431 2.28088 17.5017 1.89916 17.502 1.501C17.5024 1.10283 17.3445 0.72084 17.0632 0.439047C16.7819 0.157255 16.4002 -0.00125197 16.0021 -0.0016036C15.6039 -0.00195523 15.2219 0.155877 14.9401 0.437172L9.0026 6.37467L3.0651 0.437172C2.78331 0.15538 2.40112 -0.00292969 2.0026 -0.00292969C1.60409 -0.00292969 1.22189 0.15538 0.940102 0.437172C0.65831 0.718965 0.5 1.10116 0.5 1.49967C0.5 1.89819 0.65831 2.28038 0.940102 2.56217L6.8776 8.49967L0.940102 14.4372C0.65831 14.719 0.5 15.1012 0.5 15.4997C0.5 15.8982 0.65831 16.2804 0.940102 16.5622C1.22189 16.844 1.60409 17.0023 2.0026 17.0023C2.40112 17.0023 2.78331 16.844 3.0651 16.5622L9.0026 10.6247L14.9401 16.5622C15.2219 16.844 15.6041 17.0023 16.0026 17.0023C16.4011 17.0023 16.7833 16.844 17.0651 16.5622C17.3469 16.2804 17.5052 15.8982 17.5052 15.4997C17.5052 15.1012 17.3469 14.719 17.0651 14.4372L11.1239 8.49967Z" />
</svg>
