<svg width="32" height="33" viewBox="0 0 32 33" fill="current" xmlns="http://www.w3.org/2000/svg">
<g id="mingcute:user-heart-fill" clip-path="url(#clip0_1534_3348)">
<g id="Group">
<path id="Vector" d="M14.6667 3.1665C12.8986 3.1665 11.2029 3.86888 9.9527 5.11913C8.70246 6.36937 8.00008 8.06506 8.00008 9.83317C8.00008 11.6013 8.70246 13.297 9.9527 14.5472C11.2029 15.7975 12.8986 16.4998 14.6667 16.4998C16.4349 16.4998 18.1306 15.7975 19.3808 14.5472C20.631 13.297 21.3334 11.6013 21.3334 9.83317C21.3334 8.06506 20.631 6.36937 19.3808 5.11913C18.1306 3.86888 16.4349 3.1665 14.6667 3.1665ZM14.6667 17.8332C11.4734 17.8332 8.56675 18.7585 6.42941 20.0612C5.36275 20.7145 4.45075 21.4812 3.79208 22.3145C3.14408 23.1358 2.66675 24.1172 2.66675 25.1665C2.66675 26.2932 3.21475 27.1812 4.00408 27.8145C4.75075 28.4145 5.73608 28.8118 6.78275 29.0892C8.88675 29.6452 11.6947 29.8332 14.6667 29.8332L15.5801 29.8265C15.8034 29.8234 16.0223 29.7643 16.2169 29.6546C16.4114 29.5449 16.5752 29.3881 16.6933 29.1985C16.8114 29.009 16.8801 28.7929 16.8929 28.5699C16.9057 28.3469 16.8624 28.1243 16.7667 27.9225C16.26 26.8528 15.9981 25.6835 16.0001 24.4998C16.0001 22.8305 16.5107 21.2838 17.3827 20.0025C17.5124 19.8121 17.5904 19.5913 17.6094 19.3618C17.6283 19.1322 17.5874 18.9017 17.4907 18.6926C17.3941 18.4835 17.2449 18.3031 17.0577 18.1688C16.8705 18.0346 16.6518 17.9511 16.4227 17.9265C15.8494 17.8652 15.2627 17.8332 14.6667 17.8332ZM20.6667 20.0878C21.6707 19.5025 22.9054 19.4265 24.0001 20.0265C25.0947 19.4265 26.3294 19.5025 27.3334 20.0878C28.5547 20.7998 29.3681 22.2078 29.3334 23.8052C29.2854 25.8985 27.6694 27.5358 25.4854 28.8332C25.0281 29.1038 24.5481 29.3892 24.0001 29.3892C23.4534 29.3892 22.9721 29.1038 22.5147 28.8332C20.3307 27.5358 18.7147 25.8972 18.6681 23.8065C18.6321 22.2092 19.4454 20.7998 20.6667 20.0878Z"/>
</g>
</g>
<defs>
<clipPath id="clip0_1534_3348">
<rect width="32" height="32" fill="white" transform="translate(0 0.5)"/>
</clipPath>
</defs>
</svg>
