<svg width="30" height="23" viewBox="0 0 30 23" fill="none" xmlns="http://www.w3.org/2000/svg">
<path d="M25.2556 3.15694H7.89244C7.4738 3.15694 7.07231 2.99064 6.77629 2.69462C6.48027 2.3986 6.31396 1.99711 6.31396 1.57847C6.31396 1.15983 6.48027 0.758344 6.77629 0.462324C7.07231 0.166303 7.4738 0 7.89244 0H25.2556C25.6742 0 26.0757 0.166303 26.3718 0.462324C26.6678 0.758344 26.8341 1.15983 26.8341 1.57847C26.8341 1.99711 26.6678 2.3986 26.3718 2.69462C26.0757 2.99064 25.6742 3.15694 25.2556 3.15694Z" fill="black"/>
<path d="M25.2556 9.47042H7.89244C7.4738 9.47042 7.07231 9.30412 6.77629 9.00809C6.48027 8.71207 6.31396 8.31058 6.31396 7.89195C6.31396 7.47331 6.48027 7.07182 6.77629 6.7758C7.07231 6.47978 7.4738 6.31348 7.89244 6.31348H25.2556C25.6742 6.31348 26.0757 6.47978 26.3718 6.7758C26.6678 7.07182 26.8341 7.47331 26.8341 7.89195C26.8341 8.31058 26.6678 8.71207 26.3718 9.00809C26.0757 9.30412 25.6742 9.47042 25.2556 9.47042Z" fill="black"/>
<path d="M15.7848 15.7849H7.89244C7.4738 15.7849 7.07231 15.6186 6.77629 15.3225C6.48027 15.0265 6.31396 14.625 6.31396 14.2064C6.31396 13.7878 6.48027 13.3863 6.77629 13.0903C7.07231 12.7942 7.4738 12.6279 7.89244 12.6279H15.7848C16.2034 12.6279 16.6049 12.7942 16.9009 13.0903C17.197 13.3863 17.3633 13.7878 17.3633 14.2064C17.3633 14.625 17.197 15.0265 16.9009 15.3225C16.6049 15.6186 16.2034 15.7849 15.7848 15.7849Z" fill="black"/>
<path d="M1.57847 3.15694C2.45024 3.15694 3.15694 2.45024 3.15694 1.57847C3.15694 0.706705 2.45024 0 1.57847 0C0.706705 0 0 0.706705 0 1.57847C0 2.45024 0.706705 3.15694 1.57847 3.15694Z" fill="black"/>
<path d="M1.57847 9.47042C2.45024 9.47042 3.15694 8.76371 3.15694 7.89195C3.15694 7.02018 2.45024 6.31348 1.57847 6.31348C0.706705 6.31348 0 7.02018 0 7.89195C0 8.76371 0.706705 9.47042 1.57847 9.47042Z" fill="black"/>
<path d="M1.57847 15.7849C2.45024 15.7849 3.15694 15.0782 3.15694 14.2064C3.15694 13.3346 2.45024 12.6279 1.57847 12.6279C0.706705 12.6279 0 13.3346 0 14.2064C0 15.0782 0.706705 15.7849 1.57847 15.7849Z" fill="black"/>
<path d="M15.7848 22.0983H7.89244C7.4738 22.0983 7.07231 21.932 6.77629 21.636C6.48027 21.34 6.31396 20.9385 6.31396 20.5199C6.31396 20.1012 6.48027 19.6997 6.77629 19.4037C7.07231 19.1077 7.4738 18.9414 7.89244 18.9414H15.7848C16.2034 18.9414 16.6049 19.1077 16.9009 19.4037C17.197 19.6997 17.3633 20.1012 17.3633 20.5199C17.3633 20.9385 17.197 21.34 16.9009 21.636C16.6049 21.932 16.2034 22.0983 15.7848 22.0983Z" fill="black"/>
<path d="M1.57847 22.0983C2.45024 22.0983 3.15694 21.3916 3.15694 20.5199C3.15694 19.6481 2.45024 18.9414 1.57847 18.9414C0.706705 18.9414 0 19.6481 0 20.5199C0 21.3916 0.706705 22.0983 1.57847 22.0983Z" fill="black"/>
<path d="M27.4812 17.3639L29.5332 15.3277C29.6804 15.1805 29.7971 15.0058 29.8768 14.8135C29.9564 14.6212 29.9974 14.4151 29.9974 14.207C29.9974 13.9989 29.9564 13.7928 29.8768 13.6005C29.7971 13.4082 29.6804 13.2335 29.5332 13.0863C29.386 12.9391 29.2113 12.8224 29.019 12.7427C28.8267 12.6631 28.6206 12.6221 28.4125 12.6221C28.2044 12.6221 27.9983 12.6631 27.806 12.7427C27.6137 12.8224 27.439 12.9391 27.2918 13.0863L25.2556 15.1383L23.2193 13.0863C22.9221 12.7891 22.519 12.6221 22.0986 12.6221C21.6783 12.6221 21.2751 12.7891 20.9779 13.0863C20.6807 13.3835 20.5137 13.7866 20.5137 14.207C20.5137 14.6273 20.6807 15.0305 20.9779 15.3277L23.0299 17.3639L20.9779 19.4002C20.8299 19.5469 20.7125 19.7215 20.6324 19.9138C20.5522 20.1062 20.511 20.3125 20.511 20.5209C20.511 20.7293 20.5522 20.9356 20.6324 21.1279C20.7125 21.3203 20.8299 21.4949 20.9779 21.6416C21.1246 21.7895 21.2992 21.907 21.4916 21.9871C21.6839 22.0672 21.8902 22.1085 22.0986 22.1085C22.307 22.1085 22.5133 22.0672 22.7057 21.9871C22.898 21.907 23.0726 21.7895 23.2193 21.6416L25.2556 19.5896L27.2918 21.6416C27.4385 21.7895 27.6131 21.907 27.8054 21.9871C27.9978 22.0672 28.2041 22.1085 28.4125 22.1085C28.6209 22.1085 28.8272 22.0672 29.0195 21.9871C29.2119 21.907 29.3865 21.7895 29.5332 21.6416C29.6812 21.4949 29.7986 21.3203 29.8787 21.1279C29.9589 20.9356 30.0001 20.7293 30.0001 20.5209C30.0001 20.3125 29.9589 20.1062 29.8787 19.9138C29.7986 19.7215 29.6812 19.5469 29.5332 19.4002L27.4812 17.3639Z" fill="black"/>
</svg>
