<svg width="42" height="33" viewBox="0 0 42 33" fill="none" xmlns="http://www.w3.org/2000/svg">
<path d="M9.93919 11.6749L22.7728 0.59263C23.8962 -0.377526 25.6667 0.41012 25.6667 1.91709V7.95189C35.0862 8.6979 42 11.759 42 21.3356C42 25.8157 39.1138 30.254 35.9236 32.5744C34.9281 33.2985 33.5093 32.3897 33.8763 31.2159C36.6845 22.2353 33.5904 18.8578 25.6667 17.944V24.0817C25.6667 25.5912 23.8948 26.3752 22.7728 25.4062L9.93919 14.3238C9.13193 13.6266 9.13083 12.373 9.93919 11.6749ZM0.605856 14.3238L13.4395 25.4061C14.5614 26.3751 16.3333 25.5911 16.3333 24.0816V22.9282L8.41414 16.0898C7.97015 15.7065 7.61401 15.232 7.36997 14.6987C7.12593 14.1654 6.99974 13.5857 6.99999 12.9992C6.99975 12.4127 7.12594 11.8331 7.36996 11.2998C7.61399 10.7666 7.97011 10.2922 8.41406 9.90897L16.3333 3.07041V1.91709C16.3333 0.41012 14.5629 -0.377526 13.4395 0.59263L0.605856 11.6749C-0.202499 12.373 -0.201405 13.6266 0.605856 14.3238Z" fill="#024A7A"/>
</svg>
