<svg width="30" height="30" viewBox="0 0 30 30" fill="none" xmlns="http://www.w3.org/2000/svg">
<g clip-path="url(#clip0_1297_3649)">
<path d="M15 0C6.71484 0 0 6.71484 0 15C0 23.2852 6.71484 30 15 30C23.2852 30 30 23.2852 30 15C30 6.71484 23.2852 0 15 0ZM23.748 16.248C23.748 16.9395 23.1914 17.4961 22.5 17.4961H17.502V22.5C17.502 23.1914 16.9453 23.748 16.2539 23.748H13.752C13.0605 23.748 12.5039 23.1855 12.5039 22.5V17.502H7.5C6.80859 17.502 6.25195 16.9395 6.25195 16.2539V13.752C6.25195 13.0605 6.80859 12.5039 7.5 12.5039H12.498V7.5C12.498 6.80859 13.0547 6.25195 13.7461 6.25195H16.248C16.9395 6.25195 17.4961 6.81445 17.4961 7.5V12.498H22.5C23.1914 12.498 23.748 13.0605 23.748 13.7461V16.248Z" fill="#024A7A"/>
</g>
<defs>
<clipPath id="clip0_1297_3649">
<rect width="30" height="30" fill="white"/>
</clipPath>
</defs>
</svg>
