<svg width="131" height="67" viewBox="0 0 131 67" fill="none" xmlns="http://www.w3.org/2000/svg">
<path d="M75.912 10.724V14.736H70.608V35H65.712V14.736H60.408V10.724H75.912ZM84.1825 23.78C84.1598 23.0773 84.1145 22.4653 84.0465 21.944C83.9785 21.4 83.8538 20.9467 83.6725 20.584C83.5138 20.1987 83.2758 19.9153 82.9585 19.734C82.6638 19.53 82.2785 19.428 81.8025 19.428C81.3265 19.428 80.9298 19.5413 80.6125 19.768C80.3178 19.972 80.0798 20.2553 79.8985 20.618C79.7172 20.958 79.5812 21.3433 79.4905 21.774C79.4225 22.2047 79.3885 22.6353 79.3885 23.066V23.78H84.1825ZM79.3885 26.568V28.03C79.3885 28.574 79.4225 29.1067 79.4905 29.628C79.5812 30.1267 79.7172 30.58 79.8985 30.988C80.0798 31.3733 80.3178 31.6907 80.6125 31.94C80.9072 32.1667 81.2698 32.28 81.7005 32.28C82.4938 32.28 83.0718 31.9967 83.4345 31.43C83.7972 30.8633 84.0465 30.002 84.1825 28.846H88.3985C88.3078 30.9767 87.7412 32.5973 86.6985 33.708C85.6558 34.8187 84.0125 35.374 81.7685 35.374C80.0685 35.374 78.7425 35.0907 77.7905 34.524C76.8385 33.9573 76.1358 33.2093 75.6825 32.28C75.2292 31.3507 74.9458 30.308 74.8325 29.152C74.7418 27.996 74.6965 26.84 74.6965 25.684C74.6965 24.46 74.7758 23.2813 74.9345 22.148C75.1158 21.0147 75.4558 20.006 75.9545 19.122C76.4758 18.238 77.2125 17.5353 78.1645 17.014C79.1165 16.4927 80.3858 16.232 81.9725 16.232C83.3325 16.232 84.4432 16.4587 85.3045 16.912C86.1885 17.3427 86.8798 17.966 87.3785 18.782C87.8772 19.5753 88.2172 20.55 88.3985 21.706C88.5798 22.8393 88.6705 24.1087 88.6705 25.514V26.568H79.3885ZM99.6488 25.854C99.3314 26.1033 98.9914 26.3073 98.6288 26.466C98.2661 26.602 97.9374 26.704 97.6428 26.772C96.6908 26.976 96.0108 27.316 95.6028 27.792C95.1948 28.268 94.9908 28.914 94.9908 29.73C94.9908 30.4327 95.1268 31.0333 95.3988 31.532C95.6708 32.0307 96.1241 32.28 96.7588 32.28C97.0761 32.28 97.4048 32.2347 97.7448 32.144C98.0848 32.0307 98.3908 31.8607 98.6628 31.634C98.9574 31.4073 99.1954 31.1127 99.3768 30.75C99.5581 30.3873 99.6488 29.9567 99.6488 29.458V25.854ZM91.0808 22.318V21.876C91.0808 20.8107 91.2508 19.9267 91.5908 19.224C91.9308 18.4987 92.3841 17.9207 92.9508 17.49C93.5401 17.0367 94.2201 16.7193 94.9908 16.538C95.7841 16.334 96.6228 16.232 97.5068 16.232C98.9121 16.232 100.045 16.368 100.907 16.64C101.768 16.912 102.437 17.2973 102.913 17.796C103.389 18.2947 103.706 18.8953 103.865 19.598C104.046 20.278 104.137 21.026 104.137 21.842V31.464C104.137 32.3253 104.171 32.994 104.239 33.47C104.329 33.946 104.488 34.456 104.715 35H100.227C100.068 34.7053 99.9434 34.3993 99.8528 34.082C99.7848 33.742 99.7168 33.4133 99.6488 33.096H99.5808C99.0368 34.048 98.4021 34.6713 97.6768 34.966C96.9741 35.238 96.0561 35.374 94.9228 35.374C94.1068 35.374 93.4154 35.238 92.8488 34.966C92.2821 34.6713 91.8288 34.2747 91.4888 33.776C91.1488 33.2773 90.8994 32.722 90.7408 32.11C90.5821 31.4753 90.5028 30.852 90.5028 30.24C90.5028 29.3787 90.5934 28.642 90.7748 28.03C90.9561 27.3953 91.2281 26.8627 91.5908 26.432C91.9761 25.9787 92.4521 25.6047 93.0188 25.31C93.6081 25.0153 94.3108 24.7547 95.1268 24.528L97.7788 23.814C98.4814 23.6327 98.9688 23.3833 99.2408 23.066C99.5128 22.7487 99.6488 22.284 99.6488 21.672C99.6488 20.9693 99.4788 20.4253 99.1388 20.04C98.8214 19.632 98.2661 19.428 97.4728 19.428C96.7474 19.428 96.2034 19.6433 95.8408 20.074C95.4781 20.5047 95.2968 21.0827 95.2968 21.808V22.318H91.0808ZM107.484 16.708H111.972V18.578H112.04C112.629 17.7393 113.287 17.1387 114.012 16.776C114.76 16.4133 115.644 16.232 116.664 16.232C117.752 16.232 118.659 16.4813 119.384 16.98C120.132 17.4787 120.631 18.204 120.88 19.156H120.948C121.311 18.1813 121.889 17.456 122.682 16.98C123.498 16.4813 124.461 16.232 125.572 16.232C127.136 16.232 128.281 16.708 129.006 17.66C129.754 18.5893 130.128 19.938 130.128 21.706V35H125.436V22.216C125.436 21.4453 125.289 20.856 124.994 20.448C124.722 20.04 124.257 19.836 123.6 19.836C122.852 19.836 122.251 20.0853 121.798 20.584C121.367 21.0827 121.152 21.876 121.152 22.964V35H116.46V22.216C116.46 21.4453 116.313 20.856 116.018 20.448C115.746 20.04 115.281 19.836 114.624 19.836C113.876 19.836 113.275 20.0853 112.822 20.584C112.391 21.0827 112.176 21.876 112.176 22.964V35H107.484V16.708Z" fill="#F5FBFF"/>
<path d="M74.07 41.918C74.07 40.15 73.8547 38.8693 73.424 38.076C73.016 37.26 72.2567 36.852 71.146 36.852C70.534 36.852 70.024 37.022 69.616 37.362C69.2307 37.6793 68.9247 38.212 68.698 38.96C68.4713 39.6853 68.3127 40.6487 68.222 41.85C68.1313 43.0287 68.086 44.4793 68.086 46.202C68.086 48.038 68.1427 49.5227 68.256 50.656C68.392 51.7893 68.5847 52.6733 68.834 53.308C69.106 53.92 69.4347 54.3393 69.82 54.566C70.228 54.77 70.6927 54.872 71.214 54.872C71.6447 54.872 72.0413 54.804 72.404 54.668C72.7893 54.5093 73.118 54.2147 73.39 53.784C73.662 53.3307 73.8773 52.7073 74.036 51.914C74.1947 51.098 74.274 50.0327 74.274 48.718H79.17C79.17 50.0327 79.068 51.2793 78.864 52.458C78.66 53.6367 78.2747 54.668 77.708 55.552C77.164 56.436 76.382 57.1273 75.362 57.626C74.3647 58.1247 73.0613 58.374 71.452 58.374C69.616 58.374 68.154 58.0793 67.066 57.49C65.978 56.9007 65.1393 56.0507 64.55 54.94C63.9833 53.8293 63.6093 52.5033 63.428 50.962C63.2693 49.4207 63.19 47.7207 63.19 45.862C63.19 44.026 63.2693 42.3373 63.428 40.796C63.6093 39.232 63.9833 37.8947 64.55 36.784C65.1393 35.6733 65.978 34.812 67.066 34.2C68.154 33.5653 69.616 33.248 71.452 33.248C73.1973 33.248 74.5687 33.5313 75.566 34.098C76.586 34.6647 77.3453 35.39 77.844 36.274C78.3427 37.1353 78.6487 38.076 78.762 39.096C78.898 40.0933 78.966 41.034 78.966 41.918H74.07ZM81.9107 33.724H86.6027V41.578H86.6707C87.5774 40.014 89.0621 39.232 91.1247 39.232C92.6207 39.232 93.7654 39.64 94.5587 40.456C95.3747 41.272 95.7827 42.598 95.7827 44.434V58H91.0907V45.386C91.0907 44.434 90.9321 43.7767 90.6147 43.414C90.2974 43.0287 89.7874 42.836 89.0847 42.836C87.4301 42.836 86.6027 43.8447 86.6027 45.862V58H81.9107V33.724ZM107.53 48.854C107.212 49.1033 106.872 49.3073 106.51 49.466C106.147 49.602 105.818 49.704 105.524 49.772C104.572 49.976 103.892 50.316 103.484 50.792C103.076 51.268 102.872 51.914 102.872 52.73C102.872 53.4327 103.008 54.0333 103.28 54.532C103.552 55.0307 104.005 55.28 104.64 55.28C104.957 55.28 105.286 55.2347 105.626 55.144C105.966 55.0307 106.272 54.8607 106.544 54.634C106.838 54.4073 107.076 54.1127 107.258 53.75C107.439 53.3873 107.53 52.9567 107.53 52.458V48.854ZM98.9617 45.318V44.876C98.9617 43.8107 99.1317 42.9267 99.4717 42.224C99.8117 41.4987 100.265 40.9207 100.832 40.49C101.421 40.0367 102.101 39.7193 102.872 39.538C103.665 39.334 104.504 39.232 105.388 39.232C106.793 39.232 107.926 39.368 108.788 39.64C109.649 39.912 110.318 40.2973 110.794 40.796C111.27 41.2947 111.587 41.8953 111.746 42.598C111.927 43.278 112.018 44.026 112.018 44.842V54.464C112.018 55.3253 112.052 55.994 112.12 56.47C112.21 56.946 112.369 57.456 112.596 58H108.108C107.949 57.7053 107.824 57.3993 107.734 57.082C107.666 56.742 107.598 56.4133 107.53 56.096H107.462C106.918 57.048 106.283 57.6713 105.558 57.966C104.855 58.238 103.937 58.374 102.804 58.374C101.988 58.374 101.296 58.238 100.73 57.966C100.163 57.6713 99.7097 57.2747 99.3697 56.776C99.0297 56.2773 98.7804 55.722 98.6217 55.11C98.4631 54.4753 98.3837 53.852 98.3837 53.24C98.3837 52.3787 98.4744 51.642 98.6557 51.03C98.8371 50.3953 99.1091 49.8627 99.4717 49.432C99.8571 48.9787 100.333 48.6047 100.9 48.31C101.489 48.0153 102.192 47.7547 103.008 47.528L105.66 46.814C106.362 46.6327 106.85 46.3833 107.122 46.066C107.394 45.7487 107.53 45.284 107.53 44.672C107.53 43.9693 107.36 43.4253 107.02 43.04C106.702 42.632 106.147 42.428 105.354 42.428C104.628 42.428 104.084 42.6433 103.722 43.074C103.359 43.5047 103.178 44.0827 103.178 44.808V45.318H98.9617ZM116.47 34.472H121.162V39.708H123.882V42.904H121.162V52.798C121.162 53.5233 121.264 54.0447 121.468 54.362C121.695 54.6567 122.148 54.804 122.828 54.804C123.009 54.804 123.191 54.804 123.372 54.804C123.553 54.7813 123.723 54.7587 123.882 54.736V58C123.361 58 122.851 58.0113 122.352 58.034C121.876 58.0793 121.366 58.102 120.822 58.102C119.915 58.102 119.167 58.0453 118.578 57.932C118.011 57.796 117.569 57.5467 117.252 57.184C116.957 56.7987 116.753 56.3 116.64 55.688C116.527 55.076 116.47 54.3053 116.47 53.376V42.904H114.09V39.708H116.47V34.472Z" fill="#F5FBFF"/>
<g clip-path="url(#clip0_71_2382)">
<path d="M37.0852 37.1362L56.8798 44.5437" stroke="#F5FBFF" stroke-width="1.5093"/>
<path d="M25.072 48.6913L27.9805 40.1719" stroke="#F5FBFF" stroke-width="1.5093"/>
<path d="M37.1541 32.3186L45.778 29.9863" stroke="#F5FBFF" stroke-width="1.5093"/>
<path d="M6.24438 43.9205L24.2302 36.415" stroke="#F5FBFF" stroke-width="2.0124"/>
<path d="M31.1404 42.045C35.6655 42.045 39.3338 38.3426 39.3338 33.7754C39.3338 29.2083 35.6655 25.5059 31.1404 25.5059C26.6153 25.5059 22.947 29.2083 22.947 33.7754C22.947 38.3426 26.6153 42.045 31.1404 42.045Z" fill="#F5FBFF" stroke="#F5FBFF" stroke-width="0.503099"/>
<path d="M41.8296 65.9674C44.5579 65.9674 46.7696 63.7351 46.7696 60.9815C46.7696 58.2279 44.5579 55.9956 41.8296 55.9956C39.1014 55.9956 36.8896 58.2279 36.8896 60.9815C36.8896 63.7351 39.1014 65.9674 41.8296 65.9674Z" fill="#F5FBFF" stroke="#F5FBFF" stroke-width="0.503099"/>
<path d="M31.1377 10.1461C33.866 10.1461 36.0777 7.91385 36.0777 5.16021C36.0777 2.40658 33.866 0.174316 31.1377 0.174316C28.4095 0.174316 26.1978 2.40658 26.1978 5.16021C26.1978 7.91385 28.4095 10.1461 31.1377 10.1461Z" fill="#F5FBFF" stroke="#F5FBFF" stroke-width="0.503099"/>
<path d="M49.7333 33.1312C52.2048 33.1312 54.2084 31.109 54.2084 28.6144C54.2084 26.1199 52.2048 24.0977 49.7333 24.0977C47.2617 24.0977 45.2581 26.1199 45.2581 28.6144C45.2581 31.109 47.2617 33.1312 49.7333 33.1312Z" fill="#F5FBFF" stroke="#F5FBFF" stroke-width="0.503099"/>
<path d="M3.71826 48.1416C5.67647 48.1416 7.26392 46.5394 7.26392 44.563C7.26392 42.5866 5.67647 40.9844 3.71826 40.9844C1.76005 40.9844 0.172607 42.5866 0.172607 44.563C0.172607 46.5394 1.76005 48.1416 3.71826 48.1416Z" fill="#F5FBFF" stroke="#F5FBFF" stroke-width="0.503099"/>
<path d="M16.0356 24.6877C17.3521 24.6877 18.4193 23.6106 18.4193 22.2818C18.4193 20.9531 17.3521 19.876 16.0356 19.876C14.7191 19.876 13.6519 20.9531 13.6519 22.2818C13.6519 23.6106 14.7191 24.6877 16.0356 24.6877Z" fill="#F5FBFF" stroke="#F5FBFF" stroke-width="0.503099"/>
<path d="M24.404 52.3645C25.7205 52.3645 26.7877 51.2873 26.7877 49.9586C26.7877 48.6299 25.7205 47.5527 24.404 47.5527C23.0875 47.5527 22.0203 48.6299 22.0203 49.9586C22.0203 51.2873 23.0875 52.3645 24.404 52.3645Z" fill="#F5FBFF" stroke="#F5FBFF" stroke-width="0.503099"/>
<path d="M57.3989 46.2666C58.4587 46.2666 59.3179 45.3995 59.3179 44.3298C59.3179 43.2602 58.4587 42.3931 57.3989 42.3931C56.3391 42.3931 55.48 43.2602 55.48 44.3298C55.48 45.3995 56.3391 46.2666 57.3989 46.2666Z" fill="#F5FBFF" stroke="#F5FBFF" stroke-width="0.503099"/>
<path d="M31.3794 25.3314V10.3203" stroke="#F5FBFF" stroke-width="2.0124"/>
<path d="M40.2552 56.0661L34.6772 41.0552" stroke="#F5FBFF" stroke-width="2.0124"/>
<path d="M17.5168 23.8862L24.4885 29.5154" stroke="#F5FBFF" stroke-width="1.5093"/>
</g>
<defs>
<clipPath id="clip0_71_2382">
<rect width="60" height="67" fill="white"/>
</clipPath>
</defs>
</svg>
