<svg width="55" height="43" viewBox="0 0 55 43" fill="none" xmlns="http://www.w3.org/2000/svg">
<path d="M54.4252 5.74023L52.2435 3.55859L32.0348 23.7674C29.5087 26.2935 25.2602 26.2935 22.7341 23.7674L2.52538 3.67342L0.34375 5.85504L15.3855 20.8968L0.34375 35.9386L2.52538 38.1202L17.5671 23.0784L20.5525 26.0638C22.3897 27.901 24.801 28.9344 27.327 28.9344C29.8531 28.9344 32.2644 27.901 34.1016 26.0638L37.087 23.0784L52.1287 38.1202L54.3103 35.9386L39.2686 20.8968L54.4252 5.74023Z" fill="#134563"/>
<path d="M50.1775 42.025H4.82255C2.18163 42.025 0 39.8434 0 37.2025V4.82254C0 2.18162 2.18163 0 4.82255 0H50.1775C52.8184 0 55 2.18162 55 4.82254V37.2025C55 39.8434 52.8184 42.025 50.1775 42.025ZM4.70772 3.10021C3.78914 3.10021 3.10021 3.78913 3.10021 4.70771V37.0877C3.10021 38.0063 3.78914 38.6952 4.70772 38.6952H50.0626C50.9812 38.6952 51.6701 38.0063 51.6701 37.0877V4.70771C51.6701 3.78913 50.9812 3.10021 50.0626 3.10021H4.70772Z" fill="#134563"/>
</svg>
