<svg width="30" height="34" viewBox="0 0 30 34" fill="none" xmlns="http://www.w3.org/2000/svg">
<path d="M15.486 -0.000255585C15.7622 -0.000732422 16.0357 0.0534325 16.2909 0.159119C16.5461 0.264805 16.7779 0.419926 16.9729 0.615551L27.7404 11.3775C29.1872 12.8243 30 14.7867 30 16.8328C30 18.8789 29.1872 20.8412 27.7404 22.2881L16.9785 33.05C16.5838 33.4446 16.0485 33.6661 15.4904 33.666C14.9323 33.6659 14.3971 33.4441 14.0025 33.0493C13.608 32.6546 13.3864 32.1193 13.3866 31.5612C13.3867 31.0031 13.6085 30.4679 14.0032 30.0734L24.7652 19.3129C25.0909 18.9872 25.3493 18.6006 25.5256 18.175C25.7019 17.7495 25.7926 17.2934 25.7926 16.8328C25.7926 16.3722 25.7019 15.9161 25.5256 15.4906C25.3493 15.065 25.0909 14.6784 24.7652 14.3527L14.0032 3.5922C13.7091 3.29827 13.5087 2.92377 13.4272 2.51601C13.3458 2.10824 13.387 1.68549 13.5456 1.30112C13.7043 0.916752 13.9732 0.588005 14.3186 0.356384C14.6639 0.124767 15.0701 0.000663757 15.486 -0.000255585Z" fill="black"/>
<path d="M2.10093 0.000240326C2.3773 0.000114441 2.65098 0.0544319 2.90635 0.160095C3.16172 0.265759 3.39377 0.420689 3.58925 0.616047L16.3277 13.3615C17.2468 14.2831 17.7629 15.5316 17.7629 16.8333C17.7629 18.1349 17.2468 19.3834 16.3277 20.3051L3.58925 33.0505C3.19093 33.4268 2.66155 33.6328 2.11369 33.6248C1.56583 33.6168 1.04269 33.3954 0.655529 33.0077C0.268364 32.6199 0.0477066 32.0965 0.0404778 31.5486C0.0332489 31.0008 0.240019 30.4717 0.616819 30.0739L13.3622 17.3299C13.4276 17.2647 13.4794 17.1873 13.5147 17.1021C13.5501 17.0169 13.5683 16.9255 13.5683 16.8333C13.5683 16.741 13.5501 16.6497 13.5147 16.5645C13.4794 16.4793 13.4276 16.4019 13.3622 16.3367L0.616819 3.59269C0.322611 3.29868 0.122145 2.92406 0.0407429 2.51616C-0.040659 2.10826 0.000656128 1.68539 0.15947 1.30097C0.318285 0.916542 0.587471 0.587811 0.933025 0.356297C1.27858 0.124786 1.685 0.000881195 2.10093 0.000240326Z" fill="black"/>
</svg>
