<svg width="300" height="300" viewBox="0 0 300 300" fill="none" xmlns="http://www.w3.org/2000/svg">
<path fill-rule="evenodd" clip-rule="evenodd" d="M150 294C229.529 294 294 229.529 294 150C294 70.471 229.529 6 150 6C70.471 6 6 70.471 6 150C6 229.529 70.471 294 150 294ZM150 300C232.843 300 300 232.843 300 150C300 67.1573 232.843 0 150 0C67.1573 0 0 67.1573 0 150C0 232.843 67.1573 300 150 300Z" fill="url(#paint0_linear_397_4593)"/>
<path d="M133.356 75.5988C135.547 61.3553 138.834 48.2075 143.217 37.251C149.791 66.8336 165.13 101.894 181.564 128.19C162.938 127.094 145.408 117.234 130.069 104.086C130.069 96.4162 131.164 85.4597 133.356 75.5988Z" fill="url(#paint1_linear_397_4593)"/>
<path d="M57.764 199.408C81.8684 203.79 98.3031 204.886 110.355 203.79C116.929 202.695 121.312 200.503 124.599 197.216C127.886 193.929 131.173 189.547 132.268 184.068L133.364 180.781L130.077 178.59C89.5379 150.103 75.2945 97.5119 73.1032 59.1641C86.251 73.4075 100.494 92.0336 116.929 107.373C137.747 125.999 161.851 141.338 190.338 138.051C196.912 136.955 201.294 132.573 204.581 128.19C206.773 123.808 208.964 118.329 210.06 113.947C212.251 109.564 214.442 105.181 217.729 102.99C222.112 99.7032 227.59 98.6075 235.26 99.7032C240.738 100.799 250.599 105.181 259.364 110.66C264.842 113.947 270.321 117.234 274.703 120.521C260.46 128.19 247.312 130.381 236.355 133.668L233.068 134.764V138.051C233.068 138.051 231.973 150.103 228.686 163.251C225.399 175.303 219.921 190.642 213.347 197.216C194.721 215.842 165.138 222.416 137.747 221.321C111.451 220.225 91.7293 239.947 79.6771 256.381C70.9119 254.19 62.1466 246.521 57.764 235.564C53.3814 224.608 52.2858 211.46 57.764 199.408Z" fill="url(#paint2_linear_397_4593)"/>
<defs>
<linearGradient id="paint0_linear_397_4593" x1="150" y1="0" x2="150" y2="300" gradientUnits="userSpaceOnUse">
<stop stop-color="#0287DF"/>
<stop offset="1" stop-color="#FFD800"/>
</linearGradient>
<linearGradient id="paint1_linear_397_4593" x1="155.817" y1="128.19" x2="155.817" y2="37.251" gradientUnits="userSpaceOnUse">
<stop stop-color="#0287DF"/>
<stop offset="1" stop-color="#014979"/>
</linearGradient>
<linearGradient id="paint2_linear_397_4593" x1="164.379" y1="256.381" x2="164.379" y2="59.1641" gradientUnits="userSpaceOnUse">
<stop stop-color="#0287DF"/>
<stop offset="1" stop-color="#014979"/>
</linearGradient>
</defs>
</svg>
