<svg width="122" height="60" viewBox="0 0 122 60" fill="none" xmlns="http://www.w3.org/2000/svg">
<circle cx="30" cy="30" r="29" stroke="#0F1E28" stroke-width="2"/>
<path d="M26.6711 15.12C27.1094 12.2713 27.7667 9.64174 28.6433 7.45044C29.9581 13.367 33.0259 20.3791 36.3128 25.6383C32.5876 25.4191 29.0815 23.447 26.0137 20.8174C26.0137 19.2835 26.2328 17.0922 26.6711 15.12Z" fill="#0F1E28"/>
<path d="M11.5527 39.8817C16.3736 40.7582 19.6606 40.9774 22.071 40.7582C23.3858 40.5391 24.2623 40.1008 24.9197 39.4434C25.5771 38.7861 26.2345 37.9095 26.4536 36.8139L26.6727 36.1565L26.0153 35.7182C17.9075 30.0208 15.0588 19.5026 14.6206 11.833C17.2501 14.6817 20.0988 18.4069 23.3858 21.4747C27.5492 25.2 32.3701 28.2678 38.0675 27.6104C39.3823 27.3913 40.2588 26.5147 40.9162 25.6382C41.3545 24.7617 41.7927 23.6661 42.0119 22.7895C42.4501 21.913 42.8884 21.0365 43.5458 20.5982C44.4223 19.9408 45.5179 19.7217 47.0519 19.9408C48.1475 20.16 50.1197 21.0365 51.8727 22.1321C52.9684 22.7895 54.064 23.4469 54.9406 24.1043C52.0919 25.6382 49.4623 26.0765 47.271 26.7339L46.6136 26.953V27.6104C46.6136 27.6104 46.3945 30.0208 45.7371 32.6504C45.0797 35.0608 43.984 38.1287 42.6692 39.4434C38.944 43.1687 33.0275 44.4834 27.5492 44.2643C22.2901 44.0452 18.3458 47.9895 15.9353 51.2765C14.1823 50.8382 12.4293 49.3043 11.5527 47.113C10.6762 44.9217 10.4571 42.2921 11.5527 39.8817Z" fill="#0F1E28"/>
<path d="M70.452 29.874C68.616 29.874 67.154 29.5793 66.066 28.99C64.978 28.378 64.1393 27.528 63.55 26.44C62.9833 25.3293 62.6093 24.0147 62.428 22.496C62.2693 20.9547 62.19 19.2433 62.19 17.362C62.19 15.526 62.2693 13.8373 62.428 12.296C62.6093 10.732 62.9833 9.39467 63.55 8.284C64.1393 7.17333 64.978 6.312 66.066 5.7C67.154 5.06533 68.616 4.748 70.452 4.748C72.1973 4.748 73.5687 5.03133 74.566 5.598C75.586 6.16467 76.3453 6.89 76.844 7.774C77.3427 8.63533 77.6487 9.576 77.762 10.596C77.898 11.5933 77.966 12.534 77.966 13.418H73.07C73.07 11.65 72.8547 10.3693 72.424 9.576C72.016 8.76 71.2567 8.352 70.146 8.352C69.534 8.352 69.024 8.522 68.616 8.862C68.2307 9.17933 67.9247 9.712 67.698 10.46C67.4713 11.1853 67.3127 12.1487 67.222 13.35C67.1313 14.5287 67.086 15.9793 67.086 17.702C67.086 19.538 67.1427 21.0227 67.256 22.156C67.392 23.2893 67.5847 24.1733 67.834 24.808C68.106 25.42 68.4347 25.8393 68.82 26.066C69.228 26.27 69.6927 26.372 70.214 26.372C70.6447 26.372 71.0413 26.304 71.404 26.168C71.7893 26.0093 72.118 25.7147 72.39 25.284C72.662 24.8307 72.8773 24.2073 73.036 23.414C73.1947 22.598 73.274 21.5327 73.274 20.218H78.17C78.17 21.5553 78.068 22.8133 77.864 23.992C77.66 25.148 77.2747 26.168 76.708 27.052C76.164 27.9133 75.382 28.6047 74.362 29.126C73.3647 29.6247 72.0613 29.874 70.452 29.874ZM84.9057 20.354C84.9057 21.2833 84.9284 22.1447 84.9737 22.938C85.0191 23.7313 85.1211 24.4113 85.2797 24.978C85.4611 25.5447 85.7217 25.9867 86.0617 26.304C86.4017 26.6213 86.8551 26.78 87.4217 26.78C88.3737 26.78 89.0311 26.2813 89.3937 25.284C89.7564 24.2867 89.9377 22.6433 89.9377 20.354C89.9377 18.0647 89.7564 16.4213 89.3937 15.424C89.0311 14.4267 88.3737 13.928 87.4217 13.928C86.8551 13.928 86.4017 14.0867 86.0617 14.404C85.7217 14.7213 85.4611 15.1633 85.2797 15.73C85.1211 16.2967 85.0191 16.9767 84.9737 17.77C84.9284 18.5633 84.9057 19.4247 84.9057 20.354ZM80.2137 20.354C80.2137 18.79 80.3384 17.4073 80.5877 16.206C80.8371 15.0047 81.2451 14.0073 81.8117 13.214C82.3784 12.398 83.1151 11.786 84.0217 11.378C84.9511 10.9473 86.0844 10.732 87.4217 10.732C88.8271 10.7093 89.9944 10.902 90.9237 11.31C91.8531 11.6953 92.5897 12.296 93.1337 13.112C93.6777 13.928 94.0631 14.9367 94.2897 16.138C94.5164 17.3393 94.6297 18.7447 94.6297 20.354C94.6297 21.918 94.5051 23.3007 94.2557 24.502C94.0064 25.7033 93.5984 26.712 93.0317 27.528C92.4651 28.3213 91.7171 28.9107 90.7877 29.296C89.8811 29.6813 88.7591 29.874 87.4217 29.874C86.0164 29.8967 84.8491 29.7267 83.9197 29.364C82.9904 28.9787 82.2537 28.3893 81.7097 27.596C81.1657 26.78 80.7804 25.7713 80.5537 24.57C80.3271 23.346 80.2137 21.9407 80.2137 20.354ZM101.242 20.354C101.242 21.2833 101.264 22.1447 101.31 22.938C101.355 23.7313 101.457 24.4113 101.616 24.978C101.797 25.5447 102.058 25.9867 102.398 26.304C102.738 26.6213 103.191 26.78 103.758 26.78C104.71 26.78 105.367 26.2813 105.73 25.284C106.092 24.2867 106.274 22.6433 106.274 20.354C106.274 18.0647 106.092 16.4213 105.73 15.424C105.367 14.4267 104.71 13.928 103.758 13.928C103.191 13.928 102.738 14.0867 102.398 14.404C102.058 14.7213 101.797 15.1633 101.616 15.73C101.457 16.2967 101.355 16.9767 101.31 17.77C101.264 18.5633 101.242 19.4247 101.242 20.354ZM96.5497 20.354C96.5497 18.79 96.6743 17.4073 96.9237 16.206C97.173 15.0047 97.581 14.0073 98.1477 13.214C98.7143 12.398 99.451 11.786 100.358 11.378C101.287 10.9473 102.42 10.732 103.758 10.732C105.163 10.7093 106.33 10.902 107.26 11.31C108.189 11.6953 108.926 12.296 109.47 13.112C110.014 13.928 110.399 14.9367 110.626 16.138C110.852 17.3393 110.966 18.7447 110.966 20.354C110.966 21.918 110.841 23.3007 110.592 24.502C110.342 25.7033 109.934 26.712 109.368 27.528C108.801 28.3213 108.053 28.9107 107.124 29.296C106.217 29.6813 105.095 29.874 103.758 29.874C102.352 29.8967 101.185 29.7267 100.256 29.364C99.3263 28.9787 98.5897 28.3893 98.0457 27.596C97.5017 26.78 97.1163 25.7713 96.8897 24.57C96.663 23.346 96.5497 21.9407 96.5497 20.354ZM113.668 5.224H118.36V29.5H113.668V5.224Z" fill="#0F1E28"/>
<path d="M68.888 54.874C67.7093 54.874 66.678 54.7267 65.794 54.432C64.9327 54.1373 64.2073 53.6273 63.618 52.902C63.0513 52.1767 62.6207 51.202 62.326 49.978C62.0313 48.754 61.884 47.2127 61.884 45.354C61.884 43.4727 62.0653 41.92 62.428 40.696C62.7907 39.4493 63.3007 38.4633 63.958 37.738C64.6153 36.99 65.3973 36.4687 66.304 36.174C67.2107 35.8793 68.208 35.732 69.296 35.732C71.472 35.732 73.104 36.3667 74.192 37.636C75.3027 38.9053 75.858 40.628 75.858 42.804H71.37C71.37 42.3733 71.336 41.9427 71.268 41.512C71.2227 41.0587 71.1207 40.662 70.962 40.322C70.826 39.9593 70.6107 39.676 70.316 39.472C70.044 39.2453 69.6927 39.132 69.262 39.132C68.6727 39.132 68.1967 39.268 67.834 39.54C67.494 39.7893 67.2333 40.1747 67.052 40.696C66.8707 41.1947 66.746 41.8407 66.678 42.634C66.61 43.4273 66.576 44.3453 66.576 45.388C66.576 46.5213 66.61 47.496 66.678 48.312C66.746 49.1053 66.8707 49.7627 67.052 50.284C67.2333 50.8053 67.4827 51.1907 67.8 51.44C68.14 51.6667 68.5707 51.78 69.092 51.78C69.8853 51.78 70.4633 51.44 70.826 50.76C71.1887 50.08 71.37 48.992 71.37 47.496H75.858C75.858 49.8987 75.314 51.7347 74.226 53.004C73.1607 54.2507 71.3813 54.874 68.888 54.874ZM78.6423 30.224H83.3343V38.078H83.4023C84.3089 36.514 85.7936 35.732 87.8563 35.732C89.3523 35.732 90.4969 36.14 91.2903 36.956C92.1063 37.772 92.5143 39.098 92.5143 40.934V54.5H87.8223V41.886C87.8223 40.934 87.6636 40.2767 87.3463 39.914C87.0289 39.5287 86.5189 39.336 85.8163 39.336C84.1616 39.336 83.3343 40.3447 83.3343 42.362V54.5H78.6423V30.224ZM104.516 45.354C104.199 45.6033 103.859 45.8073 103.496 45.966C103.134 46.102 102.805 46.204 102.51 46.272C101.558 46.476 100.878 46.816 100.47 47.292C100.062 47.768 99.8583 48.414 99.8583 49.23C99.8583 49.9327 99.9943 50.5333 100.266 51.032C100.538 51.5307 100.992 51.78 101.626 51.78C101.944 51.78 102.272 51.7347 102.612 51.644C102.952 51.5307 103.258 51.3607 103.53 51.134C103.825 50.9073 104.063 50.6127 104.244 50.25C104.426 49.8873 104.516 49.4567 104.516 48.958V45.354ZM95.9483 41.818V41.376C95.9483 40.3107 96.1183 39.4267 96.4583 38.724C96.7983 37.9987 97.2516 37.4207 97.8183 36.99C98.4076 36.5367 99.0876 36.2193 99.8583 36.038C100.652 35.834 101.49 35.732 102.374 35.732C103.78 35.732 104.913 35.868 105.774 36.14C106.636 36.412 107.304 36.7973 107.78 37.296C108.256 37.7947 108.574 38.3953 108.732 39.098C108.914 39.778 109.004 40.526 109.004 41.342V50.964C109.004 51.8253 109.038 52.494 109.106 52.97C109.197 53.446 109.356 53.956 109.582 54.5H105.094C104.936 54.2053 104.811 53.8993 104.72 53.582C104.652 53.242 104.584 52.9133 104.516 52.596H104.448C103.904 53.548 103.27 54.1713 102.544 54.466C101.842 54.738 100.924 54.874 99.7903 54.874C98.9743 54.874 98.2829 54.738 97.7163 54.466C97.1496 54.1713 96.6963 53.7747 96.3563 53.276C96.0163 52.7773 95.7669 52.222 95.6083 51.61C95.4496 50.9753 95.3703 50.352 95.3703 49.74C95.3703 48.8787 95.4609 48.142 95.6423 47.53C95.8236 46.8953 96.0956 46.3627 96.4583 45.932C96.8436 45.4787 97.3196 45.1047 97.8863 44.81C98.4756 44.5153 99.1783 44.2547 99.9943 44.028L102.646 43.314C103.349 43.1327 103.836 42.8833 104.108 42.566C104.38 42.2487 104.516 41.784 104.516 41.172C104.516 40.4693 104.346 39.9253 104.006 39.54C103.689 39.132 103.134 38.928 102.34 38.928C101.615 38.928 101.071 39.1433 100.708 39.574C100.346 40.0047 100.164 40.5827 100.164 41.308V41.818H95.9483ZM113.711 30.972H118.403V36.208H121.123V39.404H118.403V49.298C118.403 50.0233 118.505 50.5447 118.709 50.862C118.936 51.1567 119.389 51.304 120.069 51.304C120.251 51.304 120.432 51.304 120.613 51.304C120.795 51.2813 120.965 51.2587 121.123 51.236V54.5C120.602 54.5 120.092 54.5113 119.593 54.534C119.117 54.5793 118.607 54.602 118.063 54.602C117.157 54.602 116.409 54.5453 115.819 54.432C115.253 54.296 114.811 54.0467 114.493 53.684C114.199 53.2987 113.995 52.8 113.881 52.188C113.768 51.576 113.711 50.8053 113.711 49.876V39.404H111.331V36.208H113.711V30.972Z" fill="#0F1E28"/>
</svg>
