<svg width="45" height="50" viewBox="0 0 45 50" fill="none" xmlns="http://www.w3.org/2000/svg">
<path d="M26.4409 42.6807H18.5583C16.9818 42.6807 15.6305 44.4824 16.5314 46.0589C17.8827 48.0859 20.1348 49.4372 22.6122 49.4372C25.0896 49.4372 27.3418 48.0859 28.4679 46.0589C29.3688 44.4824 28.2427 42.6807 26.4409 42.6807Z" fill="black"/>
<path d="M44.6815 35.2471L43.7806 34.121C40.1771 29.3915 38.3754 23.761 38.3754 17.9053V16.3288C38.3754 8.22097 32.5197 1.014 24.4119 0.11313C14.9527 -1.01296 6.84489 6.41923 6.84489 15.6532V17.9053C6.84489 23.761 5.04315 29.3915 1.43966 34.121L0.53879 35.2471C0.0883542 35.6976 -0.136864 36.5984 0.088354 37.0489C0.764008 39.0758 2.56575 40.4271 4.59271 40.4271H40.6276C42.6545 40.4271 44.4563 39.0758 44.9067 37.0489C45.1319 36.3732 44.9067 35.6976 44.6815 35.2471Z" fill="black"/>
</svg>
