<svg width="49" height="51" viewBox="0 0 49 51" fill="none" xmlns="http://www.w3.org/2000/svg">
<g id="g58" filter="url(#filter0_d_1162_5119)">
<g id="g56">
<path id="path40" d="M7.39266 9.31305V9.29841L7.39181 9.2838C7.36623 8.84729 7.46811 8.41584 7.68072 8.04025L24.137 24.4966L7.68154 40.9632C7.46977 40.587 7.36776 40.1557 7.3919 39.7191L7.39266 39.7053V39.6915V9.31305Z" fill="url(#paint0_linear_1162_5119)" stroke="#024A7A"/>
<path id="path42" d="M36.9204 22.9533L36.9221 22.9542C37.7937 23.4448 38.1118 24.0238 38.1118 24.4979C38.1118 24.9727 37.7928 25.5549 36.9201 26.0513L30.4027 29.7516L25.1477 24.4966L30.4023 19.2527L36.9204 22.9533Z" fill="url(#paint1_linear_1162_5119)" stroke="#024A7A"/>
<g id="path44">
<mask id="path-3-inside-1_1162_5119" fill="white">
<path d="M30.4435 30.3037L24.6769 24.5371L7.52699 41.6178C7.92229 41.9428 8.41445 42.1271 8.92599 42.1417C9.43753 42.1563 9.9394 42.0004 10.3526 41.6985L30.4089 30.3037"/>
</mask>
<path d="M30.4435 30.3037L24.6769 24.5371L7.52699 41.6178C7.92229 41.9428 8.41445 42.1271 8.92599 42.1417C9.43753 42.1563 9.9394 42.0004 10.3526 41.6985L30.4089 30.3037" fill="url(#paint2_linear_1162_5119)"/>
<path d="M24.6769 24.5371L25.384 23.83L24.6783 23.1243L23.9712 23.8286L24.6769 24.5371ZM7.52699 41.6178L6.82131 40.9092L6.03866 41.6887L6.89192 42.3902L7.52699 41.6178ZM10.3526 41.6985L9.85864 40.829L9.80889 40.8573L9.76269 40.8911L10.3526 41.6985ZM31.1506 29.5966L25.384 23.83L23.9697 25.2442L29.7363 31.0108L31.1506 29.5966ZM23.9712 23.8286L6.82131 40.9092L8.23266 42.3263L25.3825 25.2456L23.9712 23.8286ZM6.89192 42.3902C7.45859 42.8561 8.16412 43.1203 8.89743 43.1413L8.95455 41.1421C8.66477 41.1338 8.38598 41.0294 8.16206 40.8453L6.89192 42.3902ZM8.89743 43.1413C9.63074 43.1622 10.3502 42.9387 10.9425 42.506L9.76269 40.8911C9.52862 41.0621 9.24432 41.1504 8.95455 41.1421L8.89743 43.1413ZM10.8466 42.568L30.9028 31.1732L29.9149 29.4342L9.85864 40.829L10.8466 42.568Z" fill="#024A7A" mask="url(#path-3-inside-1_1162_5119)"/>
</g>
<path id="path46" d="M10.0479 7.69114L10.0755 7.71236L10.1058 7.72956L29.6257 18.8118L24.6423 23.7952L8.31891 7.47182C8.51409 7.38859 8.72438 7.34144 8.93959 7.33442C9.33918 7.32137 9.73091 7.44745 10.0479 7.69114Z" fill="url(#paint3_linear_1162_5119)" stroke="#024A7A"/>
<g id="path48" opacity="0.1">
<mask id="path-6-inside-2_1162_5119" fill="white">
<path d="M30.3166 30.1768L10.3526 41.5024C9.95439 41.7991 9.47103 41.9594 8.9744 41.9594C8.47778 41.9594 7.99441 41.7991 7.59618 41.5024L7.49239 41.6062L7.59618 41.71C7.99441 42.0067 8.47778 42.167 8.9744 42.167C9.47103 42.167 9.95439 42.0067 10.3526 41.71L30.4088 30.3152L30.3166 30.1768Z"/>
</mask>
<path d="M30.3166 30.1768L10.3526 41.5024C9.95439 41.7991 9.47103 41.9594 8.9744 41.9594C8.47778 41.9594 7.99441 41.7991 7.59618 41.5024L7.49239 41.6062L7.59618 41.71C7.99441 42.0067 8.47778 42.167 8.9744 42.167C9.47103 42.167 9.95439 42.0067 10.3526 41.71L30.4088 30.3152L30.3166 30.1768Z" fill="black"/>
<path d="M30.3166 30.1768L31.1486 29.6221L30.6325 28.8478L29.8232 29.307L30.3166 30.1768ZM10.3526 41.5024L9.85919 40.6326L9.80504 40.6633L9.75512 40.7005L10.3526 41.5024ZM7.59618 41.5024L8.19368 40.7005L7.50042 40.1839L6.88908 40.7953L7.59618 41.5024ZM7.49239 41.6062L6.78528 40.8991L6.07817 41.6062L6.78528 42.3133L7.49239 41.6062ZM7.59618 41.71L6.88908 42.4171L6.94044 42.4684L6.99868 42.5118L7.59618 41.71ZM10.3526 41.71L9.85864 40.8405L9.80478 40.8711L9.75512 40.9081L10.3526 41.71ZM30.4088 30.3152L30.9028 31.1846L31.8366 30.6541L31.2409 29.7605L30.4088 30.3152ZM29.8232 29.307L9.85919 40.6326L10.8461 42.3721L30.81 31.0465L29.8232 29.307ZM9.75512 40.7005C9.52953 40.8686 9.25572 40.9594 8.9744 40.9594V42.9594C9.68633 42.9594 10.3792 42.7296 10.9501 42.3042L9.75512 40.7005ZM8.9744 40.9594C8.69308 40.9594 8.41927 40.8686 8.19368 40.7005L6.99868 42.3042C7.56956 42.7296 8.26247 42.9594 8.9744 42.9594V40.9594ZM6.88908 40.7953L6.78528 40.8991L8.19949 42.3133L8.30329 42.2095L6.88908 40.7953ZM6.78528 42.3133L6.88908 42.4171L8.30329 41.0028L8.19949 40.8991L6.78528 42.3133ZM6.99868 42.5118C7.56956 42.9372 8.26247 43.167 8.9744 43.167V41.167C8.69308 41.167 8.41927 41.0762 8.19368 40.9081L6.99868 42.5118ZM8.9744 43.167C9.68633 43.167 10.3792 42.9372 10.9501 42.5118L9.75512 40.9081C9.52953 41.0762 9.25572 41.167 8.9744 41.167V43.167ZM10.8466 42.5794L30.9028 31.1846L29.9149 29.4457L9.85864 40.8405L10.8466 42.5794ZM31.2409 29.7605L31.1486 29.6221L29.4845 30.7315L29.5768 30.8699L31.2409 29.7605Z" fill="#024A7A" mask="url(#path-6-inside-2_1162_5119)"/>
</g>
<g id="path50" opacity="0.07">
<mask id="path-8-inside-3_1162_5119" fill="white">
<path d="M7.52699 41.4332C7.07979 40.8899 6.85335 40.1982 6.89266 39.4956V39.6917C6.85401 40.3907 7.08054 41.0785 7.52699 41.6177L7.63079 41.5139L7.52699 41.4332Z"/>
</mask>
<path d="M7.52699 41.4332C7.07979 40.8899 6.85335 40.1982 6.89266 39.4956V39.6917C6.85401 40.3907 7.08054 41.0785 7.52699 41.6177L7.63079 41.5139L7.52699 41.4332Z" fill="black"/>
<path d="M7.52699 41.4332L6.75489 42.0687L6.82543 42.1544L6.91305 42.2225L7.52699 41.4332ZM6.89266 39.4956H7.89266L5.89422 39.4397L6.89266 39.4956ZM6.89266 39.6917L7.89114 39.7469L7.89266 39.7193V39.6917H6.89266ZM7.52699 41.6177L6.75673 42.2554L7.45731 43.1016L8.23409 42.3248L7.52699 41.6177ZM7.63079 41.5139L8.33789 42.221L9.13889 41.42L8.24473 40.7246L7.63079 41.5139ZM8.29909 40.7977C8.01146 40.4482 7.86582 40.0034 7.8911 39.5515L5.89422 39.4397C5.84089 40.393 6.14813 41.3315 6.75489 42.0687L8.29909 40.7977ZM5.89266 39.4956V39.6917H7.89266V39.4956H5.89266ZM5.89419 39.6365C5.84163 40.5869 6.14966 41.5222 6.75673 42.2554L8.29725 40.98C8.01142 40.6348 7.86639 40.1944 7.89114 39.7469L5.89419 39.6365ZM8.23409 42.3248L8.33789 42.221L6.92368 40.8068L6.81988 40.9106L8.23409 42.3248ZM8.24473 40.7246L8.14093 40.6438L6.91305 42.2225L7.01685 42.3033L8.24473 40.7246Z" fill="#024A7A" mask="url(#path-8-inside-3_1162_5119)"/>
</g>
<g id="path52" opacity="0.07">
<mask id="path-10-inside-4_1162_5119" fill="white">
<path d="M37.1673 26.2783L30.3166 30.1765L30.4435 30.3034L37.1673 26.4398C37.5617 26.2663 37.903 25.9913 38.1563 25.6428C38.4096 25.2942 38.5658 24.8847 38.609 24.4561C38.5303 24.8523 38.3585 25.2242 38.1079 25.541C37.8572 25.8578 37.5348 26.1105 37.1673 26.2783Z"/>
</mask>
<path d="M37.1673 26.2783L30.3166 30.1765L30.4435 30.3034L37.1673 26.4398C37.5617 26.2663 37.903 25.9913 38.1563 25.6428C38.4096 25.2942 38.5658 24.8847 38.609 24.4561C38.5303 24.8523 38.3585 25.2242 38.1079 25.541C37.8572 25.8578 37.5348 26.1105 37.1673 26.2783Z" fill="black"/>
<path d="M37.1673 26.2783L36.7521 25.3686L36.7115 25.3871L36.6727 25.4092L37.1673 26.2783ZM30.3166 30.1765L29.822 29.3074L28.682 29.9561L29.6095 30.8836L30.3166 30.1765ZM30.4435 30.3034L29.7363 31.0105L30.2778 31.5519L30.9417 31.1704L30.4435 30.3034ZM37.1673 26.4398L36.7648 25.5244L36.7156 25.546L36.6691 25.5727L37.1673 26.4398ZM38.609 24.4561L39.6039 24.5563L37.6281 24.2613L38.609 24.4561ZM36.6727 25.4092L29.822 29.3074L30.8112 31.0457L37.6619 27.1474L36.6727 25.4092ZM29.6095 30.8836L29.7363 31.0105L31.1506 29.5963L31.0237 29.4694L29.6095 30.8836ZM30.9417 31.1704L37.6655 27.3068L36.6691 25.5727L29.9452 29.4363L30.9417 31.1704ZM37.5699 27.3552C38.1263 27.1105 38.6078 26.7224 38.9652 26.2307L37.3473 25.0549C37.1981 25.2602 36.9971 25.4222 36.7648 25.5244L37.5699 27.3552ZM38.9652 26.2307C39.3226 25.7389 39.543 25.1611 39.6039 24.5563L37.614 24.3558C37.5886 24.6083 37.4965 24.8496 37.3473 25.0549L38.9652 26.2307ZM37.6281 24.2613C37.5803 24.5021 37.4759 24.728 37.3236 24.9206L38.8921 26.1615C39.2411 25.7203 39.4802 25.2026 39.5898 24.6508L37.6281 24.2613ZM37.3236 24.9206C37.1713 25.1131 36.9754 25.2667 36.7521 25.3686L37.5825 27.188C38.0943 26.9544 38.5431 26.6026 38.8921 26.1615L37.3236 24.9206Z" fill="#024A7A" mask="url(#path-10-inside-4_1162_5119)"/>
</g>
<g id="path54" opacity="0.3">
<mask id="path-12-inside-5_1162_5119" fill="white">
<path d="M10.3526 7.50237L37.1673 22.7147C37.5312 22.8783 37.8515 23.1254 38.102 23.436C38.3525 23.7467 38.5262 24.112 38.609 24.5023C38.5681 24.0729 38.4128 23.6623 38.1592 23.3134C37.9057 22.9645 37.5631 22.69 37.1673 22.5186L10.3526 7.29478C8.46118 6.21065 6.89266 7.11024 6.89266 9.31308V9.50915C6.89266 7.31784 8.46118 6.40672 10.3526 7.50237Z"/>
</mask>
<path d="M10.3526 7.50237L37.1673 22.7147C37.5312 22.8783 37.8515 23.1254 38.102 23.436C38.3525 23.7467 38.5262 24.112 38.609 24.5023C38.5681 24.0729 38.4128 23.6623 38.1592 23.3134C37.9057 22.9645 37.5631 22.69 37.1673 22.5186L10.3526 7.29478C8.46118 6.21065 6.89266 7.11024 6.89266 9.31308V9.50915C6.89266 7.31784 8.46118 6.40672 10.3526 7.50237Z" fill="white"/>
<path d="M10.3526 7.50237L9.85136 8.36771L9.85918 8.37215L10.3526 7.50237ZM37.1673 22.7147L36.6739 23.5844L36.7146 23.6075L36.7573 23.6267L37.1673 22.7147ZM38.609 24.5023L37.6307 24.7098L39.6045 24.4076L38.609 24.5023ZM37.1673 22.5186L36.6736 23.3882L36.7204 23.4148L36.7699 23.4362L37.1673 22.5186ZM10.3526 7.29478L9.85534 8.16237L9.8589 8.1644L10.3526 7.29478ZM9.85918 8.37215L36.6739 23.5844L37.6607 21.8449L10.8461 6.63259L9.85918 8.37215ZM36.7573 23.6267C36.9778 23.7259 37.1718 23.8756 37.3235 24.0638L38.8804 22.8083C38.5312 22.3753 38.0847 22.0307 37.5774 21.8026L36.7573 23.6267ZM37.3235 24.0638C37.4753 24.252 37.5806 24.4733 37.6307 24.7098L39.5872 24.2948C39.4718 23.7506 39.2296 23.2413 38.8804 22.8083L37.3235 24.0638ZM39.6045 24.4076C39.5467 23.8001 39.327 23.2192 38.9682 22.7255L37.3503 23.9013C37.4987 24.1055 37.5896 24.3457 37.6135 24.597L39.6045 24.4076ZM38.9682 22.7255C38.6094 22.2319 38.1247 21.8435 37.5647 21.601L36.7699 23.4362C37.0015 23.5365 37.2019 23.6971 37.3503 23.9013L38.9682 22.7255ZM37.661 21.649L10.8463 6.42515L9.8589 8.1644L36.6736 23.3882L37.661 21.649ZM10.8499 6.42718C9.71483 5.77659 8.45237 5.60237 7.41145 6.20639C6.37038 6.8105 5.89266 7.99474 5.89266 9.31308H7.89266C7.89266 8.42859 8.1992 8.06161 8.41525 7.93625C8.63145 7.81079 9.09897 7.72884 9.85534 8.16237L10.8499 6.42718ZM5.89266 9.31308V9.50915H7.89266V9.31308H5.89266ZM7.89266 9.50915C7.89266 8.63171 8.19837 8.26393 8.41525 8.13808C8.63049 8.01318 9.09665 7.93049 9.85138 8.36768L10.8539 6.63707C9.71715 5.9786 8.45333 5.80365 7.41145 6.40822C6.37121 7.01185 5.89266 8.19528 5.89266 9.50915H7.89266Z" fill="#024A7A" mask="url(#path-12-inside-5_1162_5119)"/>
</g>
</g>
</g>
<defs>
<filter id="filter0_d_1162_5119" x="0.887939" y="0.833496" width="47.7239" height="51.3335" filterUnits="userSpaceOnUse" color-interpolation-filters="sRGB">
<feFlood flood-opacity="0" result="BackgroundImageFix"/>
<feColorMatrix in="SourceAlpha" type="matrix" values="0 0 0 0 0 0 0 0 0 0 0 0 0 0 0 0 0 0 127 0" result="hardAlpha"/>
<feOffset dx="2" dy="2"/>
<feGaussianBlur stdDeviation="4"/>
<feComposite in2="hardAlpha" operator="out"/>
<feColorMatrix type="matrix" values="0 0 0 0 0.00784314 0 0 0 0 0.290196 0 0 0 0 0.478431 0 0 0 0.3 0"/>
<feBlend mode="normal" in2="BackgroundImageFix" result="effect1_dropShadow_1162_5119"/>
<feBlend mode="normal" in="SourceGraphic" in2="effect1_dropShadow_1162_5119" result="shape"/>
</filter>
<linearGradient id="paint0_linear_1162_5119" x1="23.1429" y1="8.99012" x2="0.0880771" y2="32.045" gradientUnits="userSpaceOnUse">
<stop stop-color="#008EFF"/>
<stop offset="0.01" stop-color="#008FFF"/>
<stop offset="0.26" stop-color="#00ACFF"/>
<stop offset="0.51" stop-color="#00C0FF"/>
<stop offset="0.76" stop-color="#00CDFF"/>
<stop offset="1" stop-color="#00D1FF"/>
</linearGradient>
<linearGradient id="paint1_linear_1162_5119" x1="37.398" y1="24.5022" x2="4.1593" y2="24.5022" gradientUnits="userSpaceOnUse">
<stop stop-color="#FFD800"/>
<stop offset="1" stop-color="#FF8A00"/>
</linearGradient>
<linearGradient id="paint2_linear_1162_5119" x1="27.2949" y1="27.6511" x2="-3.96007" y2="58.906" gradientUnits="userSpaceOnUse">
<stop stop-color="#FF3A44"/>
<stop offset="1" stop-color="#B11162"/>
</linearGradient>
<linearGradient id="paint3_linear_1162_5119" x1="3.21357" y1="-2.7276" x2="17.1803" y2="11.2276" gradientUnits="userSpaceOnUse">
<stop stop-color="#328E71"/>
<stop offset="0.07" stop-color="#2D9571"/>
<stop offset="0.48" stop-color="#15BD74"/>
<stop offset="0.8" stop-color="#06D575"/>
<stop offset="1" stop-color="#00DE76"/>
</linearGradient>
</defs>
</svg>
