<svg width="49" height="51" viewBox="0 0 49 51" fill="none" xmlns="http://www.w3.org/2000/svg">
<g id="g58" filter="url(#filter0_d_1271_3714)">
<g id="g56">
<path id="path40" d="M7.02699 7.387C6.57849 7.92509 6.35169 8.61375 6.39266 9.31305V39.6915C6.35401 40.3905 6.58054 41.0783 7.02699 41.6175L7.13079 41.7213L24.1423 24.6983V24.2947L7.13079 7.2832L7.02699 7.387Z" fill="url(#paint0_linear_1271_3714)"/>
<path id="path42" d="M29.8167 30.3726L24.1423 24.6983V24.2946L29.8167 18.6318L29.9435 18.701L36.6674 22.5185C38.5934 23.6026 38.5934 25.3903 36.6674 26.4859L29.9435 30.3034L29.8167 30.3726Z" fill="url(#paint1_linear_1271_3714)"/>
<path id="path44" d="M29.9436 30.3037L24.177 24.5371L7.0271 41.6178C7.4224 41.9428 7.91456 42.1271 8.4261 42.1417C8.93764 42.1563 9.43952 42.0004 9.85273 41.6985L29.909 30.3037" fill="url(#paint2_linear_1271_3714)"/>
<path id="path46" d="M29.9436 18.7011L9.85273 7.29474C9.44395 6.98047 8.93874 6.81785 8.42339 6.83468C7.90803 6.85151 7.41451 7.04673 7.0271 7.38701L24.1424 24.5023L29.9436 18.7011Z" fill="url(#paint3_linear_1271_3714)"/>
<path id="path48" opacity="0.1" d="M29.8166 30.1768L9.85266 41.5024C9.45444 41.7991 8.97107 41.9594 8.47445 41.9594C7.97782 41.9594 7.49446 41.7991 7.09623 41.5024L6.99243 41.6062L7.09623 41.71C7.49446 42.0067 7.97782 42.167 8.47445 42.167C8.97107 42.167 9.45444 42.0067 9.85266 41.71L29.9089 30.3152L29.8166 30.1768Z" fill="black"/>
<path id="path50" opacity="0.07" d="M7.02689 41.4332C6.57969 40.8899 6.35326 40.1982 6.39256 39.4956V39.6917C6.35391 40.3907 6.58044 41.0785 7.02689 41.6177L7.13069 41.5139L7.02689 41.4332Z" fill="black"/>
<path id="path52" opacity="0.07" d="M36.6674 26.2783L29.8167 30.1765L29.9435 30.3034L36.6674 26.4398C37.0618 26.2663 37.403 25.9913 37.6563 25.6428C37.9096 25.2942 38.0658 24.8847 38.109 24.4561C38.0303 24.8523 37.8586 25.2242 37.6079 25.541C37.3573 25.8578 37.0349 26.1105 36.6674 26.2783Z" fill="black"/>
<path id="path54" opacity="0.3" d="M9.85254 7.50237L36.6672 22.7147C37.0312 22.8783 37.3514 23.1254 37.6019 23.436C37.8524 23.7467 38.0261 24.112 38.1089 24.5023C38.068 24.0729 37.9127 23.6623 37.6592 23.3134C37.4056 22.9645 37.063 22.69 36.6672 22.5186L9.85254 7.29478C7.96109 6.21065 6.39258 7.11024 6.39258 9.31308V9.50915C6.39258 7.31784 7.96109 6.40672 9.85254 7.50237Z" fill="white"/>
</g>
</g>
<defs>
<filter id="filter0_d_1271_3714" x="0.387939" y="0.833496" width="47.7239" height="51.3335" filterUnits="userSpaceOnUse" color-interpolation-filters="sRGB">
<feFlood flood-opacity="0" result="BackgroundImageFix"/>
<feColorMatrix in="SourceAlpha" type="matrix" values="0 0 0 0 0 0 0 0 0 0 0 0 0 0 0 0 0 0 127 0" result="hardAlpha"/>
<feOffset dx="2" dy="2"/>
<feGaussianBlur stdDeviation="4"/>
<feComposite in2="hardAlpha" operator="out"/>
<feColorMatrix type="matrix" values="0 0 0 0 0.00784314 0 0 0 0 0.290196 0 0 0 0 0.478431 0 0 0 0.3 0"/>
<feBlend mode="normal" in2="BackgroundImageFix" result="effect1_dropShadow_1271_3714"/>
<feBlend mode="normal" in="SourceGraphic" in2="effect1_dropShadow_1271_3714" result="shape"/>
</filter>
<linearGradient id="paint0_linear_1271_3714" x1="22.6429" y1="8.99012" x2="-0.411923" y2="32.045" gradientUnits="userSpaceOnUse">
<stop stop-color="#008EFF"/>
<stop offset="0.01" stop-color="#008FFF"/>
<stop offset="0.26" stop-color="#00ACFF"/>
<stop offset="0.51" stop-color="#00C0FF"/>
<stop offset="0.76" stop-color="#00CDFF"/>
<stop offset="1" stop-color="#00D1FF"/>
</linearGradient>
<linearGradient id="paint1_linear_1271_3714" x1="36.8981" y1="24.5022" x2="3.65938" y2="24.5022" gradientUnits="userSpaceOnUse">
<stop stop-color="#FFD800"/>
<stop offset="1" stop-color="#FF8A00"/>
</linearGradient>
<linearGradient id="paint2_linear_1271_3714" x1="26.795" y1="27.6511" x2="-4.45996" y2="58.906" gradientUnits="userSpaceOnUse">
<stop stop-color="#FF3A44"/>
<stop offset="1" stop-color="#B11162"/>
</linearGradient>
<linearGradient id="paint3_linear_1271_3714" x1="2.71368" y1="-2.7276" x2="16.6804" y2="11.2276" gradientUnits="userSpaceOnUse">
<stop stop-color="#328E71"/>
<stop offset="0.07" stop-color="#2D9571"/>
<stop offset="0.48" stop-color="#15BD74"/>
<stop offset="0.8" stop-color="#06D575"/>
<stop offset="1" stop-color="#00DE76"/>
</linearGradient>
</defs>
</svg>
