<svg width="33" height="33" viewBox="0 0 33 33" fill="none" xmlns="http://www.w3.org/2000/svg">
<path fill-rule="evenodd" clip-rule="evenodd" d="M16.5 33C25.6127 33 33 25.6127 33 16.5C33 7.3873 25.6127 0 16.5 0C7.3873 0 0 7.3873 0 16.5C0 25.6127 7.3873 33 16.5 33ZM17.8442 9.19589L11.7329 14.2847C11.348 14.6053 11.3485 15.1809 11.7329 15.501L17.8442 20.5899C18.3785 21.0348 19.2222 20.6748 19.2222 19.9817V17.1633C22.9954 17.583 24.4688 19.1339 23.1316 23.2576C22.9568 23.7966 23.6324 24.2139 24.1065 23.8814C25.6256 22.8159 27 20.7779 27 18.7207C27 14.3233 23.7077 12.9177 19.2222 12.5751V9.80406C19.2222 9.11209 18.3792 8.75041 17.8442 9.19589ZM13.3998 20.5898L7.2885 15.501C6.90409 15.1809 6.90357 14.6053 7.2885 14.2847L13.3998 9.19589C13.9347 8.75041 14.7778 9.11209 14.7778 9.80406V10.3336L11.0067 13.4738C10.7953 13.6498 10.6257 13.8676 10.5095 14.1125C10.3933 14.3573 10.3332 14.6235 10.3333 14.8928C10.3332 15.1621 10.3933 15.4283 10.5095 15.6732C10.6257 15.9181 10.7953 16.1359 11.0067 16.3119L14.7778 19.452V19.9817C14.7778 20.6748 13.934 21.0348 13.3998 20.5898Z" fill="white"/>
</svg>
