<svg width="66" height="66" viewBox="0 0 66 66" fill="none" xmlns="http://www.w3.org/2000/svg">
<path d="M49.6667 3H16.3333C8.96954 3 3 8.96954 3 16.3333V49.6667C3 57.0305 8.96954 63 16.3333 63H49.6667C57.0305 63 63 57.0305 63 49.6667V16.3333C63 8.96954 57.0305 3 49.6667 3Z" stroke="#FBAFB3" stroke-width="6" stroke-linecap="round" stroke-linejoin="round"/>
<path d="M41.8869 40.1108L41.8759 40.0982L36.0088 33.3932L35.7207 33.064L36.0088 32.7347L41.8759 26.0293L41.8868 26.0168L41.8986 26.0051C42.7004 25.2029 42.7003 23.903 41.8988 23.1012L41.8869 40.1108ZM41.8869 40.1108L41.8986 40.1225C42.7004 40.9243 42.7004 42.2243 41.899 43.0261C41.1011 43.8243 39.8094 43.8283 39.0059 43.0371L33.3763 36.6028L33 36.1727L32.6237 36.6028L26.9941 43.0371C26.191 43.8282 24.8994 43.8244 24.1009 43.026C23.2996 42.2242 23.2996 40.9243 24.1014 40.1225L24.1131 40.1108L24.1241 40.0982L29.9912 33.3932L30.2793 33.064L29.9912 32.7347L24.1241 26.0293L24.1131 26.0168L24.1014 26.005C23.2997 25.2033 23.2996 23.9034 24.1013 23.1011C24.9002 22.3035 26.1915 22.3002 26.9941 23.0905L32.6237 29.5248L33 29.9549L33.3763 29.5248L39.006 23.0904C39.8081 22.2999 41.0997 22.303 41.8986 23.1011L41.8869 40.1108Z" fill="#FBAFB3" stroke="#FBAFB3"/>
</svg>
