<svg width="36" height="16" viewBox="0 0 36 16" fill="none" xmlns="http://www.w3.org/2000/svg">
<path d="M34.9228 0.462326C34.3103 0.124803 33.5226 -0.0376972 32.7313 0.0102273C31.9399 0.0581519 31.209 0.312617 30.6978 0.718187L18.0001 10.8748L5.30231 0.718354C4.79258 0.311193 4.0611 0.0557 3.2688 0.00808222C2.47651 -0.0395355 1.68828 0.124622 1.07754 0.464442C0.466792 0.804262 0.0835504 1.29191 0.0121234 1.8201C-0.0593036 2.3483 0.186934 2.87378 0.696667 3.28094L15.6973 15.2813C15.9787 15.5062 16.3309 15.6872 16.7288 15.8114C17.1267 15.9356 17.5608 16 18.0001 16C18.4395 16 18.8736 15.9356 19.2715 15.8114C19.6694 15.6872 20.0216 15.5062 20.303 15.2813L35.3036 3.28077C35.8132 2.8732 36.0593 2.34746 35.9879 1.81902C35.9165 1.29058 35.5334 0.802631 34.9228 0.462326Z" fill="black"/>
</svg>
