<svg width="24" height="27" viewBox="0 0 24 27" fill="none" xmlns="http://www.w3.org/2000/svg">
<path d="M22.5778 21.7356C20.1175 21.7078 17.7321 20.8847 15.7782 19.3893C13.8243 17.8938 12.4067 15.8063 11.7372 13.4386C11.0677 11.0709 11.1822 8.55018 12.0637 6.25298C12.9452 3.95577 14.5463 2.00544 16.6278 0.693388C15.5761 0.419977 14.494 0.280356 13.4073 0.277832C9.90053 0.277832 6.53741 1.67088 4.05776 4.15053C1.57811 6.63018 0.185059 9.9933 0.185059 13.5001C0.185059 17.0068 1.57811 20.3699 4.05776 22.8496C6.53741 25.3292 9.90053 26.7223 13.4073 26.7223C15.3939 26.7205 17.3538 26.2652 19.1378 25.3913C20.9218 24.5173 22.4828 23.2476 23.7017 21.6789C23.3283 21.7169 22.9532 21.7358 22.5778 21.7356Z" fill="#0F1E28"/>
</svg>
