<svg width="28" height="52" viewBox="0 0 28 52" xmlns="http://www.w3.org/2000/svg">
<path d="M8.5 45.996H19.5V35.668H8.5V45.996ZM14 51.332C17.788 51.332 18.966 49.278 19.334 48H8.666C9.034 49.28 10.212 51.332 14 51.332ZM14 0.66602C10.287 0.66602 6.72602 2.14102 4.10051 4.76653C1.475 7.39203 0 10.953 0 14.666C0 22.386 7.89 24.54 8.446 33.666H10.986C10.97 33.614 10.94 33.566 10.93 33.506L6.93 11.512C6.89237 11.2769 6.9395 11.0361 7.06299 10.8326C7.18648 10.629 7.3783 10.476 7.60419 10.4007C7.83008 10.3255 8.07535 10.333 8.29622 10.4219C8.51709 10.5108 8.69919 10.6753 8.81 10.886L9.916 13.098L11.022 10.884C11.1053 10.7187 11.233 10.5797 11.3906 10.4826C11.5483 10.3855 11.7298 10.3341 11.915 10.3341C12.1002 10.3341 12.2817 10.3855 12.4394 10.4826C12.597 10.5797 12.7247 10.7187 12.808 10.884L13.914 13.096L15.02 10.882C15.1023 10.7154 15.2295 10.5752 15.3873 10.4771C15.5451 10.3791 15.7272 10.3271 15.913 10.3271C16.0988 10.3271 16.2809 10.3791 16.4387 10.4771C16.5965 10.5752 16.7237 10.7154 16.806 10.882L17.914 13.094L19.02 10.88C19.1297 10.6684 19.3113 10.5029 19.5322 10.4134C19.753 10.3239 19.9986 10.3162 20.2247 10.3917C20.4507 10.4672 20.6424 10.6209 20.7651 10.8253C20.8878 11.0296 20.9335 11.271 20.894 11.506L16.894 33.502C16.886 33.562 16.854 33.608 16.838 33.658H19.548C20.104 24.534 27.996 22.378 27.996 14.658C27.996 6.93002 21.728 0.65802 13.996 0.65802L14 0.66602ZM17.916 16.332C17.7308 16.3328 17.5491 16.2816 17.3914 16.1844C17.2338 16.0872 17.1065 15.9478 17.024 15.782L15.916 13.572L14.81 15.784C14.7259 15.9492 14.5978 16.088 14.4398 16.185C14.2817 16.282 14.1 16.3334 13.9146 16.3336C13.7292 16.3338 13.5474 16.2828 13.3891 16.1862C13.2309 16.0895 13.1025 15.9511 13.018 15.786L11.912 13.576L10.806 15.788C10.7238 15.9542 10.5966 16.094 10.4389 16.1916C10.2813 16.2891 10.0994 16.3406 9.914 16.34H9.84L12.75 32.34H15.084L17.992 16.34H17.916V16.332Z"/>
</svg>
