<svg width="90" height="90" viewBox="0 0 90 90" fill="none" xmlns="http://www.w3.org/2000/svg">
<g clip-path="url(#clip0_1905_6740)">
<path d="M17.0098 6.65234C12.1172 7.5459 8.44043 10.7979 6.99023 15.5439C6.65332 16.6865 6.60938 17.0674 6.60938 18.957C6.60938 20.8467 6.65332 21.2275 6.99023 22.3701C8.29395 26.6328 11.2822 29.6211 15.5449 30.9248C16.6875 31.2617 17.0684 31.3057 18.958 31.3057C20.8477 31.3057 21.2285 31.2617 22.3711 30.9248C26.6338 29.6211 29.6221 26.6328 30.9258 22.3701C31.2627 21.2275 31.3066 20.8467 31.3066 18.957C31.3066 17.0674 31.2627 16.6865 30.9258 15.5439C29.2998 10.2119 24.8613 6.75488 19.3975 6.5791C18.4746 6.5498 17.3906 6.5791 17.0098 6.65234Z" fill="#024A7A"/>
<path d="M55.0957 6.65234C50.2031 7.5459 46.5264 10.7979 45.0762 15.5439C44.7393 16.6865 44.6953 17.0674 44.6953 18.957C44.6953 20.8467 44.7393 21.2275 45.0762 22.3701C45.7354 24.5234 46.7461 26.2373 48.2549 27.7461C49.7637 29.2549 51.4775 30.2656 53.6309 30.9248C54.7734 31.2617 55.1543 31.3057 57.0439 31.3057C58.9336 31.3057 59.3145 31.2617 60.457 30.9248C64.7197 29.6211 67.708 26.6328 69.0117 22.3701C69.3486 21.2275 69.3926 20.8467 69.3926 18.957C69.3926 17.0674 69.3486 16.6865 69.0117 15.5439C67.3857 10.2119 62.9473 6.75488 57.4834 6.5791C56.5605 6.5498 55.4766 6.5791 55.0957 6.65234Z" fill="#024A7A"/>
<path d="M33.5928 31.4814C37.2256 34.9971 39.3203 39.0986 39.9795 44.0059C40.1553 45.2363 40.1992 47.9609 40.1992 57.5117V69.4941H50.8193H61.4395V63.415C61.4395 57.7168 61.4541 57.292 61.7178 56.7793C62.04 56.1494 62.9482 55.5781 63.6221 55.5781C64.3691 55.5781 65.2041 56.0908 65.541 56.75C65.8193 57.292 65.834 57.5996 65.834 63.415V69.4941H68.9834C71.8691 69.4941 72.1914 69.4648 72.7188 69.2012C73.0996 69.0107 73.4072 68.7031 73.5977 68.3223C73.876 67.7656 73.8906 67.4727 73.8906 60.2217V52.6777L71.3711 52.6045C68.5879 52.5312 67.7236 52.3555 66.1123 51.5645C63.373 50.2168 61.293 47.6973 60.4727 44.7383C60.2822 44.0645 60.209 43.2734 60.209 42.0283C60.209 39.4795 60.8828 37.3848 62.3184 35.583C62.626 35.1875 62.875 34.8506 62.8604 34.8213C62.8311 34.8066 62.4062 34.9238 61.8789 35.085C59.6084 35.7881 57.0303 35.9639 54.5107 35.583C51.0977 35.0703 47.9043 33.4883 45.3555 31.042L44.1982 29.9434H38.0898H31.9961L33.5928 31.4814Z" fill="#024A7A"/>
<path d="M27.9678 33.1807C25.6973 34.7187 21.9619 35.8027 18.8857 35.8027C17.5088 35.8027 15.4287 35.4805 14.125 35.085C13.5977 34.9238 13.1729 34.8066 13.1582 34.8213C13.1289 34.8359 13.3779 35.1875 13.6855 35.583C14.418 36.5352 15.209 38.1172 15.5312 39.3184C15.8975 40.6221 15.8975 43.4346 15.5312 44.7383C14.7256 47.668 12.6602 50.1875 9.97949 51.5059C8.26562 52.3555 7.45996 52.5312 4.64746 52.6045L2.11328 52.6777V60.2217C2.11328 67.4727 2.12793 67.7656 2.40625 68.3223C2.59668 68.7031 2.9043 69.0107 3.28516 69.2012C3.8125 69.4648 4.13477 69.4941 7.02051 69.4941H10.1699V63.415C10.1699 57.7168 10.1846 57.292 10.4482 56.7793C10.7705 56.1494 11.6787 55.5781 12.3525 55.5781C13.0996 55.5781 13.9346 56.0908 14.2715 56.75C14.5498 57.292 14.5645 57.5996 14.5645 63.415V69.4941H25.1846H35.8047V57.585C35.8047 44.5039 35.7754 44.0352 34.9258 41.4717C33.915 38.4687 31.8789 35.5537 29.4326 33.6055C28.9199 33.21 28.4951 32.873 28.4658 32.873C28.4365 32.873 28.2168 33.0049 27.9678 33.1807Z" fill="#024A7A"/>
<path d="M3.9436 36.0078C2.59594 36.4326 1.49731 37.3994 0.911369 38.6592C0.589104 39.3477 0.574455 39.5967 0.53051 42.9365C0.486565 46.2764 0.501213 46.5107 0.779533 47.0674C1.27758 48.0488 1.87817 48.2539 4.11938 48.2539C6.85863 48.2539 8.27953 47.7705 9.64184 46.3936C12.0881 43.918 12.0735 40.0801 9.58324 37.6191C8.05981 36.0957 5.74535 35.4365 3.9436 36.0078Z" fill="#024A7A"/>
<path d="M69.3213 35.9492C67.5488 36.4033 65.9521 37.7217 65.1172 39.4648C64.6191 40.5049 64.5898 40.6514 64.5898 42.0283C64.5898 43.4053 64.6191 43.5518 65.1172 44.5918C65.9814 46.3789 67.3877 47.5508 69.2773 48.0488C69.7021 48.166 70.7861 48.2539 71.8848 48.2539C74.126 48.2539 74.7266 48.0488 75.2246 47.0674C75.5029 46.5107 75.5176 46.2764 75.4736 42.9365C75.4297 39.5967 75.415 39.3477 75.0928 38.6445C74.668 37.707 73.5986 36.6377 72.6465 36.2275C71.8262 35.8613 70.2002 35.7295 69.3213 35.9492Z" fill="#024A7A"/>
</g>
<defs>
<clipPath id="clip0_1905_6740">
<rect width="89" height="89" fill="white" transform="translate(0.5 0.5)"/>
</clipPath>
</defs>
</svg>
