<svg width="90" height="91" viewBox="0 0 90 91" fill="none" xmlns="http://www.w3.org/2000/svg">
<path d="M40.8926 6.3895C41.4188 5.8275 42.0547 5.37949 42.761 5.0732C43.4673 4.76692 44.229 4.60889 44.9989 4.60889C45.7687 4.60889 46.5304 4.76692 47.2367 5.0732C47.943 5.37949 48.5789 5.8275 49.1051 6.3895L84.7957 44.4707C88.1707 48.0595 85.617 53.9376 80.6895 53.9376H64.6863V59.5626C64.6863 61.0545 64.0937 62.4852 63.0388 63.5401C61.9839 64.595 60.5532 65.1876 59.0613 65.1876H30.9364C29.4445 65.1876 28.0138 64.595 26.9589 63.5401C25.904 62.4852 25.3114 61.0545 25.3114 59.5626V53.9376H9.30261C4.38636 53.9376 1.83261 48.0595 5.19636 44.4651L40.8926 6.3895ZM25.3114 76.4376C25.3114 74.9458 25.904 73.515 26.9589 72.4602C28.0138 71.4053 29.4445 70.8126 30.9364 70.8126H59.0613C60.5532 70.8126 61.9839 71.4053 63.0388 72.4602C64.0937 73.515 64.6863 74.9458 64.6863 76.4376V82.0626C64.6863 83.5545 64.0937 84.9852 63.0388 86.0401C61.9839 87.095 60.5532 87.6876 59.0613 87.6876H30.9364C29.4445 87.6876 28.0138 87.095 26.9589 86.0401C25.904 84.9852 25.3114 83.5545 25.3114 82.0626V76.4376Z" fill="#024A7A"/>
</svg>
