<svg width="90" height="90" viewBox="0 0 90 90" fill="none" xmlns="http://www.w3.org/2000/svg">
<path d="M45 7.5C40.0754 7.5 35.1991 8.46997 30.6494 10.3545C26.0997 12.2391 21.9657 15.0013 18.4835 18.4835C11.4509 25.5161 7.5 35.0544 7.5 45C7.5 54.9456 11.4509 64.4839 18.4835 71.5165C21.9657 74.9987 26.0997 77.7609 30.6494 79.6455C35.1991 81.53 40.0754 82.5 45 82.5C54.9456 82.5 64.4839 78.5491 71.5165 71.5165C78.5491 64.4839 82.5 54.9456 82.5 45C82.5 40.0754 81.53 35.1991 79.6455 30.6494C77.7609 26.0997 74.9987 21.9657 71.5165 18.4835C68.0343 15.0013 63.9003 12.2391 59.3506 10.3545C54.8009 8.46997 49.9246 7.5 45 7.5ZM26.25 35.625V30L37.5 35.625C37.5 38.625 34.875 41.25 31.875 41.25C28.875 41.25 26.25 38.625 26.25 35.625ZM55.3875 64.6125C53.7 61.875 49.6875 60 45 60C40.3125 60 36.3 61.875 34.6125 64.6125L29.2875 59.2875C32.6625 55.2 38.4375 52.5 45 52.5C51.5625 52.5 57.3375 55.2 60.7125 59.2875L55.3875 64.6125ZM63.75 35.625C63.75 38.625 61.125 41.25 58.125 41.25C55.125 41.25 52.5 38.625 52.5 35.625L63.75 30V35.625Z" fill="#024A7A"/>
</svg>
