<svg width="90" height="90" viewBox="0 0 90 90" fill="none" xmlns="http://www.w3.org/2000/svg">
<path d="M6.41362 0.685547C6.71245 0.966797 9.98198 4.0957 13.691 7.62891L20.441 14.0449L21.3023 12.8145C21.7769 12.1465 22.691 11.0391 23.3238 10.3711C24.4312 9.17578 24.4664 9.14062 24.0621 8.98242C23.8335 8.89453 19.8433 6.94336 15.2027 4.6582C10.5621 2.37305 6.57182 0.421875 6.32573 0.333984C5.90385 0.158203 5.90385 0.175781 6.41362 0.685547Z" fill="#024A7A"/>
<path d="M33.7474 7.3125C32.429 7.64648 30.1966 8.78906 28.9134 9.75586C27.6478 10.7227 25.7494 12.5508 24.554 13.9746C22.5501 16.3652 21.8822 18.9316 22.8665 20.4785C23.4818 21.4277 24.3783 22.2891 25.1869 22.6934L25.8372 23.0273V22.0957C25.8372 20.0391 26.7865 18 28.5619 16.207C31.0931 13.6934 34.7845 12.498 40.1283 12.4805C41.2533 12.4805 42.1849 12.4102 42.1849 12.3398C42.1849 12.252 42.4661 11.7246 42.8177 11.1445L43.4505 10.1074L42.765 9.52734C40.3919 7.45312 36.6829 6.53906 33.7474 7.3125Z" fill="#024A7A"/>
<path d="M52.0299 9.12294C48.444 9.54482 46.0182 11.2499 44.9811 14.0624C44.3658 15.7499 44.4713 15.7147 40.1822 15.8378C37.1588 15.9433 36.2096 16.0311 35.067 16.3475C30.3033 17.6483 28.1588 20.8651 29.6354 24.539C30.1803 25.9276 30.0397 26.6659 29.108 27.1581C28.5279 27.4745 28.4752 27.4745 27.3854 27.1581C25.7857 26.6835 24.1686 25.9276 22.9732 25.119C22.3932 24.7147 21.8834 24.4686 21.8131 24.5741C21.6549 24.8202 19.5631 28.037 18.526 29.6366C16.6627 32.5194 13.8678 35.2616 10.8268 37.1952C8.59434 38.6015 6.74864 40.0077 6.23887 40.6757C5.46543 41.6952 5.55333 42.3983 6.85411 44.9296C8.82286 48.7968 10.4049 50.9237 12.1451 52.0487C12.901 52.5233 13.1998 52.6112 13.9908 52.5936C15.3795 52.5585 15.942 52.2421 18.1217 50.2206C21.3033 47.2851 23.2721 45.8612 25.9791 44.4901C28.7389 43.1015 31.3756 42.5038 36.1217 42.205C40.0592 41.9413 42.6959 41.203 45.5436 39.5507C47.0025 38.6893 49.1822 36.9491 49.9205 36.0702C50.5709 35.2792 50.5885 34.787 50.0963 31.5175C49.5514 27.703 48.4615 23.9237 47.0025 20.5839C46.1764 18.7206 46.5631 17.8944 48.6197 17.2265C52.7506 15.8729 54.9479 13.6054 55.1588 10.4589C55.2467 9.1581 55.2291 9.14052 54.8248 9.14052C54.5963 9.14052 54.1217 9.10536 53.7877 9.07021C53.4537 9.03505 52.6627 9.05263 52.0299 9.12294ZM39.3912 23.0097C40.4283 24.0643 39.8658 25.2597 38.0553 25.8573C36.6842 26.3143 35.7525 26.9647 35.2252 27.8612C34.8736 28.4765 34.6451 29.5311 34.8736 29.5311C34.9088 29.5311 35.2779 29.4081 35.6998 29.2675C36.6139 28.9335 37.2643 29.0565 37.8092 29.6366C38.3014 30.164 38.319 31.1483 37.8443 31.6757C36.9303 32.6952 34.3814 33.0292 32.9225 32.3261C31.8502 31.7987 31.5689 31.2011 31.5689 29.3554C31.5514 28.1073 31.6393 27.703 32.026 26.8593C32.8522 25.0839 34.6451 23.5018 36.6314 22.8163C38.0025 22.3417 38.776 22.3944 39.3912 23.0097ZM11.0904 40.869C11.4244 41.0448 11.6529 41.3261 11.7057 41.6425C11.776 41.994 11.9869 42.2226 12.4615 42.4335C13.0943 42.6972 13.5338 43.2948 13.5338 43.8749C13.5338 44.4022 13.0065 45.1229 12.4791 45.3515C11.8463 45.6151 10.2467 45.4745 9.49083 45.0878C7.94395 44.2792 7.80333 42.0995 9.24473 40.9745C9.80723 40.5351 10.3697 40.4999 11.0904 40.869Z" fill="#024A7A"/>
<path d="M56.0716 16.4531C55.7727 16.7695 55.7024 16.9453 55.843 16.998C55.9661 17.0508 57.0032 17.7012 58.1282 18.457C63.0501 21.7266 66.5833 25.7168 69.3606 31.1484C71.9622 36.2812 73.1927 42.1348 72.7532 47.4609C72.2259 53.9121 69.3255 58.0781 61.0286 64.2656C57.3196 67.043 55.3157 68.9062 53.7512 71.0156C51.6419 73.8984 50.9387 77.0625 51.5891 80.877C51.9759 83.2676 52.3977 84.3398 53.3645 85.4121C54.718 86.9238 57.6712 87.9785 61.0813 88.1895L62.8391 88.2949L62.0305 87.416C61.0637 86.3789 60.0794 84.4102 59.6575 82.7051C59.1126 80.5254 59.3059 74.6016 59.9739 72.8965C60.1673 72.4043 60.9055 71.8945 61.4329 71.8945C61.9778 71.8945 62.6985 72.4043 62.927 72.9316C63.0852 73.3535 63.1028 73.7051 62.9446 74.5664C62.593 76.4648 62.5052 79.6465 62.7512 81.1406C63.2786 84.4102 64.5969 86.0098 67.427 86.748C68.9387 87.1523 72.2434 86.9414 73.9134 86.3437C76.8137 85.3242 79.1341 83.8477 80.9094 81.9141C82.1399 80.5605 83.3528 78.6094 82.843 78.8555C80.3469 79.9453 77.6048 80.2617 75.3548 79.7168C72.7532 79.084 70.8372 77.8184 70.0462 76.2012C69.7825 75.6914 69.6946 75.1465 69.6946 74.1797C69.7122 73.0195 69.7825 72.6855 70.3626 71.5254C71.1712 69.8379 72.2786 68.3262 74.0012 66.5332C76.3919 64.0371 78.9759 60.6973 80.5403 58.0957C82.7552 54.3867 83.9856 50.5898 84.3723 46.1953C84.7942 41.291 83.7747 36.8086 81.2962 32.5898C77.4993 26.1562 69.888 20.6191 59.9739 17.0684C56.6692 15.8906 56.5989 15.873 56.0716 16.4531Z" fill="#024A7A"/>
<path d="M51.501 19.6346C50.9737 19.8631 50.5166 20.0916 50.4815 20.1268C50.4463 20.1619 50.6924 20.9353 51.044 21.8494C53.9971 29.7244 54.5772 37.8807 52.626 43.8924C51.2901 48.0057 48.3721 51.9783 44.9092 54.4568C44.0655 55.0545 42.2198 56.1268 40.7959 56.8475C34.3975 60.0994 30.8819 63.4217 28.3682 68.6072C25.9776 73.5818 25.96 79.1014 28.3506 83.7596C29.7744 86.5369 32.5694 88.7693 35.5928 89.5252C36.7705 89.824 38.4932 90.0701 38.4932 89.9471C38.4932 89.9119 38.1065 89.0506 37.6143 88.0486C35.7862 84.199 34.9776 80.8768 34.9776 77.2029C34.9776 72.7381 36.3311 69.0643 39.2666 65.5486C40.8662 63.6326 41.7979 63.2986 42.7998 64.283C43.503 64.9861 43.3975 65.7244 42.4483 66.8318C40.4092 69.2225 39.2315 71.367 38.5283 73.9158C38.0713 75.5858 38.1416 79.6111 38.6514 81.6502C39.3018 84.1639 40.3916 86.6951 41.7979 88.9979C42.3955 89.9822 42.4483 90.0174 43.0459 89.9295C43.3975 89.8768 44.1182 89.7889 44.6455 89.7361C46.1924 89.5604 51.0088 88.5233 51.3076 88.3123C51.3428 88.2772 51.1319 87.9608 50.8506 87.5916C49.5323 85.9217 49.0225 84.7615 48.4776 82.283C47.9678 79.9275 47.9678 76.7635 48.4951 74.6365C49.6201 70.0135 52.2744 66.7264 59.0596 61.6111C61.1338 60.0467 63.3838 58.2537 64.0518 57.6561C66.5127 55.3709 68.1475 52.8748 69.0088 50.0096C69.4659 48.533 69.501 48.2166 69.4834 45.3514C69.4834 42.7146 69.4131 41.9588 69.0264 40.0604C67.3565 32.0447 62.8037 25.3826 56.0186 20.9881C54.7705 20.1795 52.8369 19.1424 52.6084 19.1775C52.5381 19.1775 52.0283 19.3885 51.501 19.6346ZM60.7119 32.7127C61.292 33.1697 61.3975 33.4334 62.0479 35.9471C63.6826 42.2752 63.1377 47.8826 60.4834 51.8904C59.6573 53.1209 58.3916 54.4744 57.4776 55.0897C56.4405 55.7752 55.1045 55.16 54.8936 53.9119C54.7881 53.2615 54.8408 53.1912 55.8428 52.242C57.2315 50.9061 57.917 50.0096 58.5498 48.6033C60.0791 45.2107 60.0791 40.6229 58.5147 35.5252C58.0401 33.9783 58.0752 33.4686 58.6905 32.8533C59.3233 32.2381 60.044 32.1854 60.7119 32.7127Z" fill="#024A7A"/>
<path d="M48.7793 41.4141C46.0547 43.4004 42.0469 44.8945 37.9336 45.4395C37.459 45.4922 37.0898 45.5977 37.0898 45.6504C37.0898 45.7031 37.3184 46.125 37.582 46.5645C38.6016 48.2344 39.2168 50.2031 39.4629 52.6816L39.5859 53.7715L40.3066 53.4199C43.1543 51.9961 46.3184 49.0605 47.8828 46.4238C48.9727 44.5605 50.4141 40.5703 49.957 40.623C49.8867 40.623 49.3594 40.9746 48.7793 41.4141Z" fill="#024A7A"/>
</svg>
