<svg width="90" height="90" viewBox="0 0 90 90" fill="none" xmlns="http://www.w3.org/2000/svg">
<path d="M12.075 27.075C15.2921 21.15 20.0494 16.2036 25.8446 12.7581C31.6398 9.31265 38.2579 7.49601 45 7.50001C59.2125 7.50001 71.5875 15.4125 77.925 27.075L75 30H15L12.075 27.075ZM80.25 32.25C81.675 36.2625 82.5 40.5375 82.5 45C82.5 54.9456 78.5491 64.4839 71.5165 71.5165C64.4839 78.5491 54.9456 82.5 45 82.5C40.0754 82.5 35.1991 81.53 30.6494 79.6455C26.0997 77.7609 21.9657 74.9987 18.4835 71.5165C11.4509 64.4839 7.5 54.9456 7.5 45C7.5 40.5375 8.325 36.2625 9.75 32.25L15 37.5H18.75C18.75 42.675 26.7 46.875 31.875 46.875C37.05 46.875 42.1875 42.675 42.1875 37.5H47.8125C47.8125 42.675 52.95 46.875 58.125 46.875C63.3 46.875 71.25 42.675 71.25 37.5H75L80.25 32.25ZM60.7125 57.825L55.3875 52.5C53.7 55.2 49.6875 57.1125 45 57.1125C40.3125 57.1125 36.3 55.2 34.6125 52.5L29.2875 57.825C32.6625 61.875 38.4375 64.6125 45 64.6125C51.5625 64.6125 57.3375 61.875 60.7125 57.825Z" fill="#024A7A"/>
</svg>
