<svg width="30" height="18" viewBox="0 0 30 18" fill="none" xmlns="http://www.w3.org/2000/svg">
<path d="M1 0.5H0.5V1.5H1V0.5ZM29 1.5C29.2761 1.5 29.5 1.27614 29.5 1C29.5 0.723858 29.2761 0.5 29 0.5V1.5ZM1 1.5H29V0.5H1V1.5Z" fill="#0F1E28"/>
<path opacity="0.8" d="M1 8.5H0.5V9.5H1V8.5ZM21 9.5C21.2761 9.5 21.5 9.27614 21.5 9C21.5 8.72386 21.2761 8.5 21 8.5V9.5ZM1 9.5H21V8.5H1V9.5Z" fill="#0F1E28"/>
<path opacity="0.6" d="M1 16.5H0.5V17.5H1V16.5ZM15 17.5C15.2761 17.5 15.5 17.2761 15.5 17C15.5 16.7239 15.2761 16.5 15 16.5V17.5ZM1 17.5H15V16.5H1V17.5Z" fill="#0F1E28"/>
</svg>
