<svg width="90" height="90" viewBox="0 0 90 90" fill="none" xmlns="http://www.w3.org/2000/svg">
<path d="M75.9375 32.3438V40.7812C75.9375 42.2731 75.3449 43.7038 74.29 44.7587C73.2351 45.8136 71.8043 46.4062 70.3125 46.4062H54.8438V78.75C54.8438 80.2418 54.2511 81.6726 53.1962 82.7275C52.1413 83.7824 50.7106 84.375 49.2188 84.375H40.7812C39.2894 84.375 37.8587 83.7824 36.8038 82.7275C35.7489 81.6726 35.1562 80.2418 35.1562 78.75V46.4062H19.6875C18.1957 46.4062 16.7649 45.8136 15.71 44.7587C14.6551 43.7038 14.0625 42.2731 14.0625 40.7812V32.3438C14.0625 30.8519 14.6551 29.4212 15.71 28.3663C16.7649 27.3114 18.1957 26.7188 19.6875 26.7188H35.1562V11.25C35.1562 9.75816 35.7489 8.32742 36.8038 7.27252C37.8587 6.21763 39.2894 5.625 40.7812 5.625H49.2188C50.7106 5.625 52.1413 6.21763 53.1962 7.27252C54.2511 8.32742 54.8438 9.75816 54.8438 11.25V26.7188H70.3125C71.8043 26.7188 73.2351 27.3114 74.29 28.3663C75.3449 29.4212 75.9375 30.8519 75.9375 32.3438Z" fill="#024A7A"/>
</svg>
