<svg width="90" height="90" viewBox="0 0 90 90" fill="none" xmlns="http://www.w3.org/2000/svg">
<path d="M15.7125 16.7625C13.0125 17.9625 11.25 20.6625 11.25 23.625V41.25C11.25 62.0625 25.65 81.525 45 86.25C64.35 81.525 78.75 62.0625 78.75 41.25V23.625C78.75 20.6625 76.9875 17.9625 74.2875 16.7625L48.0375 5.1C46.0875 4.2375 43.875 4.2375 41.9625 5.1L15.7125 16.7625ZM45 26.25C47.0625 26.25 48.75 27.9375 48.75 30C48.75 32.0625 47.0625 33.75 45 33.75C42.9375 33.75 41.25 32.0625 41.25 30C41.25 27.9375 42.9375 26.25 45 26.25ZM45 41.25C47.0625 41.25 48.75 42.9375 48.75 45V60C48.75 62.0625 47.0625 63.75 45 63.75C42.9375 63.75 41.25 62.0625 41.25 60V45C41.25 42.9375 42.9375 41.25 45 41.25Z" fill="#024A7A"/>
</svg>
