<svg width="90" height="90" viewBox="0 0 90 90" fill="none" xmlns="http://www.w3.org/2000/svg">
<path d="M24.5512 4.15689C24.4232 4.1889 23.7673 4.30089 23.1113 4.39689C20.2153 4.86089 16.6474 6.42886 14.1194 8.31683C12.4074 9.61281 9.94348 12.1728 8.8715 13.7727C8.42351 14.4767 7.62352 15.9007 7.11153 16.9567C3.62359 24.1726 3.12759 32.4764 5.76755 40.3163C6.18354 41.5963 7.54352 44.6202 8.00751 45.3242L8.24751 45.6922L8.9515 44.8442C9.33549 44.3802 9.84748 43.8363 10.1035 43.6603C13.2874 41.3083 17.4474 42.3003 19.0793 45.8042C19.4473 46.5882 19.5113 46.9242 19.5113 48.1562C19.5113 49.3722 19.4473 49.7402 19.0953 50.4921L18.6633 51.3881L19.4633 50.8441C22.4713 48.8282 26.4712 49.9802 28.0392 53.3241C28.4072 54.1081 28.4712 54.4441 28.4712 55.6761C28.4712 56.892 28.3912 57.26 28.0392 58.028L27.6232 58.924L28.3432 58.38C29.3352 57.628 30.5511 57.308 32.0551 57.388C33.5911 57.484 34.5351 57.884 35.6551 58.956C36.903 60.14 37.415 61.356 37.415 63.1159C37.431 64.2679 37.351 64.6199 36.983 65.4199C36.5671 66.3319 36.5671 66.3479 36.903 66.0919C37.495 65.6759 38.679 65.0839 39.175 64.9719C39.447 64.9079 40.135 64.8599 40.711 64.8599C44.2629 64.8759 47.0149 68.2519 46.3109 71.7078C46.0229 73.0518 45.6869 73.6278 43.8629 75.8037C42.9669 76.8757 42.135 77.8837 42.023 78.0277C41.831 78.2517 41.927 78.3637 42.7589 78.9237C43.2709 79.2757 44.6309 80.3637 45.7669 81.3396C48.4709 83.6596 49.1108 83.9796 51.1108 83.9956C52.4228 83.9956 52.7588 83.9316 53.5428 83.5636C54.7108 83.0196 55.8147 81.9156 56.3587 80.7477C56.7427 79.9477 56.7907 79.6277 56.7907 78.2357C56.7907 76.8277 56.7427 76.5237 56.3747 75.7877L55.9587 74.9558L56.5027 75.3717C58.7907 77.1157 61.8306 77.0357 63.8946 75.1797C64.4066 74.7158 64.8866 74.0598 65.2226 73.3878C65.7026 72.4278 65.7506 72.1878 65.7506 70.9558C65.7506 69.8198 65.6706 69.4358 65.3186 68.6679L64.8866 67.7559L65.4946 68.2359C66.7426 69.2438 68.7585 69.6118 70.4065 69.1158C73.6544 68.1559 75.3024 64.5239 73.8624 61.468L73.3825 60.412L74.0064 60.876C75.5104 61.948 77.8304 62.22 79.6384 61.532C80.8543 61.052 82.2623 59.756 82.8703 58.524C83.3183 57.676 83.3503 57.452 83.3503 55.9161C83.3503 54.3641 83.3183 54.1721 82.8703 53.3081C82.6143 52.7961 81.4943 51.3081 80.3903 49.9802L78.3904 47.5642L68.6305 39.4683C63.2706 35.0204 58.5027 31.0525 58.0387 30.6685L57.2067 29.9805L54.3748 35.6284C51.6068 41.1483 51.5108 41.3083 50.3908 42.4283C46.8069 46.0282 41.287 46.0922 37.767 42.5723C35.8951 40.7163 35.1111 38.8283 35.1111 36.2044C35.1111 35.1644 35.2071 34.5084 35.4951 33.6444C35.7031 33.0044 37.511 28.9885 39.511 24.7166L43.1429 16.9567L42.7109 15.5967C42.199 14.0127 41.255 12.0768 40.359 10.7488C37.543 6.60485 32.1031 4.02889 26.3432 4.0929C25.4952 4.10889 24.6792 4.14089 24.5512 4.15689Z" fill="#024A7A"/>
<path d="M63.0479 4.41007C58.424 4.90607 53.7041 7.62602 51.3201 11.114C50.2161 12.7619 49.2081 15.0499 48.6482 17.2579C48.3602 18.3619 47.3202 20.7458 44.3762 27.0337C40.6483 35.0016 40.4883 35.4016 40.4883 36.3136C40.4883 39.3055 43.8002 40.9055 46.2802 39.1135C46.8242 38.7135 47.3202 37.8495 50.3121 31.9776C52.1841 28.2817 53.8321 25.1457 53.9761 24.9697C54.7121 24.1378 56.6 23.7538 57.56 24.2498C57.8 24.3778 63.0319 28.7297 69.2078 33.9136C75.3677 39.1135 80.4556 43.3695 80.5196 43.3855C80.6316 43.4334 81.8956 41.2575 82.7116 39.6095C83.9116 37.1935 85.0636 33.6736 85.6236 30.7137C86.0396 28.5217 85.9916 23.8498 85.5436 21.8018C84.8876 18.7938 83.7836 16.1859 82.1036 13.6739C81.0476 12.09 77.9277 9.002 76.3117 7.93002C72.1838 5.22606 67.3519 3.93008 63.0479 4.41007Z" fill="#024A7A"/>
<path d="M12.2961 46.2916C11.7201 46.6436 8.15217 50.8835 7.91217 51.4915C7.30418 53.0914 8.44017 54.8354 10.1041 54.8514C11.3841 54.8674 11.7681 54.5954 13.8161 52.1635C14.8561 50.9315 15.784 49.7475 15.896 49.5555C16.184 48.9955 16.104 47.7315 15.752 47.1395C15.0801 46.0356 13.4001 45.6196 12.2961 46.2916Z" fill="#024A7A"/>
<path d="M21.6375 53.6864C20.9175 53.9104 20.5175 54.2944 18.5656 56.6143C16.5176 59.0623 16.2456 59.6063 16.5496 60.7583C16.9976 62.4222 19.0615 63.1102 20.5175 62.0702C21.2055 61.5903 24.5495 57.4623 24.7255 56.8543C25.0615 55.7983 24.5335 54.4064 23.6375 53.9424C23.0135 53.6224 22.1655 53.5104 21.6375 53.6864Z" fill="#024A7A"/>
<path d="M30.47 61.0811C30.07 61.2251 29.446 61.8171 28.198 63.2731C27.238 64.3771 26.278 65.5451 26.054 65.8651C24.8221 67.609 25.91 69.833 27.99 69.833C28.454 69.833 29.014 69.721 29.318 69.561C30.086 69.129 33.6219 64.8411 33.8299 64.0731C34.1339 62.9211 33.5579 61.6571 32.4859 61.1771C31.7339 60.8411 31.254 60.8091 30.47 61.0811Z" fill="#024A7A"/>
<path d="M39.1098 68.6933C38.5978 68.9653 35.1899 72.8532 34.6779 73.7332C34.3419 74.3092 34.4219 75.6372 34.8379 76.2451C35.5099 77.2691 36.9339 77.6371 38.0858 77.0931C38.6138 76.8371 41.4458 73.6852 42.3738 72.3092C43.1418 71.1732 42.8378 69.7012 41.6378 68.8213C41.0298 68.3733 39.8138 68.3093 39.1098 68.6933Z" fill="#024A7A"/>
</svg>
