<svg width="90" height="90" viewBox="0 0 90 90" fill="none" xmlns="http://www.w3.org/2000/svg">
<path d="M76.9724 62.7689L57.4385 59.2219C55.6567 55.6581 55.6567 54.1094 55.6567 52.111C57.4385 50.3292 60.9856 48.564 60.9856 46.7821C62.7675 41.4532 62.7675 37.9061 62.7675 37.9061C63.6834 36.5738 66.3146 34.359 66.3146 30.7953C66.3146 27.2315 62.7675 23.6844 62.7675 21.9192C62.7675 7.6976 55.5234 2.36865 44.9988 2.36865C34.9237 2.36865 27.2301 7.6976 27.2301 21.9026C27.2301 23.6844 23.683 27.2315 23.683 30.7786C23.683 34.3257 26.2142 36.6737 27.2301 37.8894C27.2301 37.8894 27.2301 41.4365 29.0119 46.7654C29.0119 48.5473 32.559 50.3125 34.3409 52.0944C34.3409 53.8763 34.3409 55.6415 32.559 59.2052L13.0251 62.7689C5.91427 64.5342 2.36719 76.9739 2.36719 87.6318H87.6303C87.6303 76.9739 84.0833 64.5342 76.9724 62.7689Z" fill="#024A7A"/>
</svg>
