<svg width="53" height="51" viewBox="0 0 53 51" fill="none" xmlns="http://www.w3.org/2000/svg">
<g filter="url(#filter0_d_1960_12763)">
<path d="M35.0271 6.8335H13.9685C10.0244 6.8335 6.83113 10.0267 6.83113 13.9708V35.0339C6.83113 38.9736 10.0244 42.1668 13.9685 42.1668H35.0316C38.9712 42.1668 42.1689 38.9736 42.1689 35.0295V13.9708C42.1645 10.0267 38.9712 6.8335 35.0271 6.8335Z" fill="url(#paint0_linear_1960_12763)"/>
<path d="M13.9685 7.3335H35.0271C38.695 7.3335 41.6648 10.3029 41.6689 13.9714V35.0295C41.6689 38.6972 38.6953 41.6668 35.0316 41.6668H13.9685C10.3003 41.6668 7.33113 38.6972 7.33113 35.0339V13.9708C7.33113 10.3029 10.3005 7.3335 13.9685 7.3335Z" stroke="#024A7A"/>
</g>
<path d="M24.3476 14.9514L25.0631 13.7147C25.5048 12.9418 26.4897 12.6812 27.2626 13.1229C28.0355 13.5645 28.2961 14.5495 27.8545 15.3224L20.96 27.2562H25.9465C27.563 27.2562 28.4684 29.1554 27.7661 30.4715H13.147C12.2548 30.4715 11.5393 29.756 11.5393 28.8639C11.5393 27.9717 12.2548 27.2562 13.147 27.2562H17.2456L22.4926 18.1623L20.854 15.318C20.4124 14.545 20.673 13.569 21.4459 13.1185C22.2188 12.6768 23.1949 12.9374 23.6454 13.7103L24.3476 14.9514ZM18.1466 32.1278L16.6008 34.8087C16.1591 35.5816 15.1742 35.8422 14.4013 35.4005C13.6284 34.9589 13.3678 33.974 13.8095 33.201L14.9578 31.2135C16.2563 30.8116 17.3119 31.1208 18.1466 32.1278ZM31.4585 27.265H35.641C36.5332 27.265 37.2487 27.9805 37.2487 28.8727C37.2487 29.7649 36.5332 30.4804 35.641 30.4804H33.3179L34.8858 33.201C35.3275 33.974 35.0669 34.95 34.294 35.4005C33.521 35.8422 32.545 35.5816 32.0945 34.8087C29.4533 30.2286 27.4702 26.8013 26.154 24.5179C24.807 22.1947 25.7698 19.8627 26.7194 19.0721C27.775 20.883 29.3517 23.6169 31.4585 27.265Z" fill="white"/>
<defs>
<filter id="filter0_d_1960_12763" x="0.831131" y="0.833496" width="51.3378" height="51.3335" filterUnits="userSpaceOnUse" color-interpolation-filters="sRGB">
<feFlood flood-opacity="0" result="BackgroundImageFix"/>
<feColorMatrix in="SourceAlpha" type="matrix" values="0 0 0 0 0 0 0 0 0 0 0 0 0 0 0 0 0 0 127 0" result="hardAlpha"/>
<feOffset dx="2" dy="2"/>
<feGaussianBlur stdDeviation="4"/>
<feComposite in2="hardAlpha" operator="out"/>
<feColorMatrix type="matrix" values="0 0 0 0 0.00784314 0 0 0 0 0.290196 0 0 0 0 0.478431 0 0 0 0.3 0"/>
<feBlend mode="normal" in2="BackgroundImageFix" result="effect1_dropShadow_1960_12763"/>
<feBlend mode="normal" in="SourceGraphic" in2="effect1_dropShadow_1960_12763" result="shape"/>
</filter>
<linearGradient id="paint0_linear_1960_12763" x1="24.4978" y1="6.8335" x2="24.4978" y2="42.1668" gradientUnits="userSpaceOnUse">
<stop stop-color="#0ED4FC"/>
<stop offset="1" stop-color="#0C57EF"/>
</linearGradient>
</defs>
</svg>
