<svg width="81" height="53" viewBox="0 0 81 53" fill="none" xmlns="http://www.w3.org/2000/svg">
<g id="Icon=App_Store, Status=Hover, Tema=Light" clip-path="url(#clip0_1162_5129)">
<g id="Vector" filter="url(#filter0_d_1162_5129)">
<path d="M51.0271 8.8335H29.9685C26.0244 8.8335 22.8311 12.0267 22.8311 15.9708V37.0339C22.8311 40.9736 26.0244 44.1668 29.9685 44.1668H51.0316C54.9712 44.1668 58.1689 40.9736 58.1689 37.0295V15.9708C58.1645 12.0267 54.9712 8.8335 51.0271 8.8335Z" fill="url(#paint0_linear_1162_5129)"/>
<path d="M29.9685 9.3335H51.0271C54.695 9.3335 57.6648 12.3029 57.6689 15.9714V37.0295C57.6689 40.6972 54.6953 43.6668 51.0316 43.6668H29.9685C26.3003 43.6668 23.3311 40.6972 23.3311 37.0339V15.9708C23.3311 12.3029 26.3005 9.3335 29.9685 9.3335Z" stroke="#024A7A"/>
</g>
<path id="Vector_2" d="M40.3476 16.9514L41.0631 15.7147C41.5048 14.9418 42.4897 14.6812 43.2626 15.1229C44.0355 15.5645 44.2961 16.5495 43.8545 17.3224L36.96 29.2562H41.9465C43.563 29.2562 44.4684 31.1554 43.7661 32.4715H29.147C28.2548 32.4715 27.5393 31.756 27.5393 30.8639C27.5393 29.9717 28.2548 29.2562 29.147 29.2562H33.2456L38.4926 20.1623L36.854 17.318C36.4124 16.545 36.673 15.569 37.4459 15.1185C38.2188 14.6768 39.1949 14.9374 39.6454 15.7103L40.3476 16.9514ZM34.1466 34.1278L32.6008 36.8087C32.1591 37.5816 31.1742 37.8422 30.4013 37.4005C29.6284 36.9589 29.3678 35.974 29.8095 35.201L30.9578 33.2135C32.2563 32.8116 33.3119 33.1208 34.1466 34.1278ZM47.4585 29.265H51.641C52.5332 29.265 53.2487 29.9805 53.2487 30.8727C53.2487 31.7649 52.5332 32.4804 51.641 32.4804H49.3179L50.8858 35.201C51.3275 35.974 51.0669 36.95 50.294 37.4005C49.521 37.8422 48.545 37.5816 48.0945 36.8087C45.4533 32.2286 43.4702 28.8013 42.154 26.5179C40.807 24.1947 41.7698 21.8627 42.7194 21.0721C43.775 22.883 45.3517 25.6169 47.4585 29.265Z" fill="white"/>
</g>
<defs>
<filter id="filter0_d_1162_5129" x="16.8311" y="2.8335" width="51.3378" height="51.3335" filterUnits="userSpaceOnUse" color-interpolation-filters="sRGB">
<feFlood flood-opacity="0" result="BackgroundImageFix"/>
<feColorMatrix in="SourceAlpha" type="matrix" values="0 0 0 0 0 0 0 0 0 0 0 0 0 0 0 0 0 0 127 0" result="hardAlpha"/>
<feOffset dx="2" dy="2"/>
<feGaussianBlur stdDeviation="4"/>
<feComposite in2="hardAlpha" operator="out"/>
<feColorMatrix type="matrix" values="0 0 0 0 0.00784314 0 0 0 0 0.290196 0 0 0 0 0.478431 0 0 0 0.3 0"/>
<feBlend mode="normal" in2="BackgroundImageFix" result="effect1_dropShadow_1162_5129"/>
<feBlend mode="normal" in="SourceGraphic" in2="effect1_dropShadow_1162_5129" result="shape"/>
</filter>
<linearGradient id="paint0_linear_1162_5129" x1="40.4978" y1="8.8335" x2="40.4978" y2="44.1668" gradientUnits="userSpaceOnUse">
<stop stop-color="#0ED4FC"/>
<stop offset="1" stop-color="#0C57EF"/>
</linearGradient>
<clipPath id="clip0_1162_5129">
<rect width="79.5" height="53" fill="white" transform="translate(0.75)"/>
</clipPath>
</defs>
</svg>
