<svg width="28" height="28" viewBox="0 0 28 28" fill="none" xmlns="http://www.w3.org/2000/svg">
<path fill-rule="evenodd" clip-rule="evenodd" d="M25.6693 13.9997C25.6693 20.4432 20.4461 25.6663 14.0026 25.6663C12.136 25.6663 10.372 25.2277 8.80862 24.4483C8.39565 24.2349 7.91892 24.1797 7.46812 24.2932L4.87112 24.9885C4.61407 25.0571 4.3435 25.0569 4.08657 24.9878C3.82963 24.9188 3.59538 24.7834 3.40732 24.5952C3.21926 24.407 3.084 24.1727 3.01513 23.9157C2.94626 23.6588 2.9462 23.3882 3.01495 23.1312L3.70912 20.5342C3.82202 20.0836 3.76643 19.6073 3.55279 19.1948C2.74969 17.5809 2.3331 15.8023 2.33595 13.9997C2.33595 7.55617 7.55912 2.33301 14.0026 2.33301C20.4461 2.33301 25.6693 7.55617 25.6693 13.9997ZM8.75262 12.959C8.75262 14.5562 10.2915 16.2315 11.7031 17.432C12.6633 18.2487 13.144 18.6582 14.0026 18.6582C14.8613 18.6582 15.342 18.2498 16.3021 17.432C17.7138 16.2303 19.2526 14.5562 19.2526 12.959C19.2526 9.83584 16.3651 8.67034 14.0026 11.083C11.6401 8.67034 8.75262 9.83584 8.75262 12.959Z" fill="current"/>
</svg>
