<svg width="340" height="340" viewBox="0 0 340 340" fill="none" xmlns="http://www.w3.org/2000/svg">
<path d="M155.833 14.1667C155.833 11.3648 156.664 8.62579 158.221 6.29609C159.778 3.9664 161.99 2.15062 164.579 1.07838C167.167 0.00613815 170.016 -0.274409 172.764 0.272215C175.512 0.818839 178.036 2.16808 180.017 4.14933C181.999 6.13057 183.348 8.65483 183.894 11.4029C184.441 14.151 184.161 16.9994 183.088 19.588C182.016 22.1766 180.2 24.3892 177.871 25.9458C175.541 27.5025 172.802 28.3333 170 28.3333C166.243 28.3333 162.639 26.8408 159.983 24.184C157.326 21.5273 155.833 17.9239 155.833 14.1667ZM42.5 99.1667C45.3019 99.1667 48.0409 98.3358 50.3706 96.7792C52.7003 95.2225 54.5161 93.01 55.5883 90.4214C56.6605 87.8327 56.9411 84.9843 56.3945 82.2362C55.8478 79.4882 54.4986 76.9639 52.5174 74.9827C50.5361 73.0014 48.0119 71.6522 45.2638 71.1056C42.5157 70.5589 39.6673 70.8395 37.0787 71.9117C34.49 72.984 32.2775 74.7997 30.7209 77.1294C29.1642 79.4591 28.3333 82.1981 28.3333 85C28.3333 88.7572 29.8259 92.3606 32.4827 95.0173C35.1394 97.6741 38.7428 99.1667 42.5 99.1667ZM99.1667 42.5C101.969 42.5 104.708 41.6691 107.037 40.1125C109.367 38.5558 111.183 36.3433 112.255 33.7547C113.327 31.1661 113.608 28.3176 113.061 25.5696C112.515 22.8215 111.165 20.2972 109.184 18.316C107.203 16.3347 104.679 14.9855 101.93 14.4389C99.1824 13.8923 96.3339 14.1728 93.7453 15.245C91.1567 16.3173 88.9442 18.1331 87.3875 20.4628C85.8309 22.7925 85 25.5314 85 28.3333C85 32.0906 86.4926 35.6939 89.1493 38.3507C91.8061 41.0075 95.4094 42.5 99.1667 42.5ZM240.833 42.5C243.635 42.5 246.374 41.6691 248.704 40.1125C251.034 38.5558 252.849 36.3433 253.922 33.7547C254.994 31.1661 255.274 28.3176 254.728 25.5696C254.181 22.8215 252.832 20.2972 250.851 18.316C248.869 16.3347 246.345 14.9855 243.597 14.4389C240.849 13.8923 238.001 14.1728 235.412 15.245C232.823 16.3173 230.611 18.1331 229.054 20.4628C227.498 22.7925 226.667 25.5314 226.667 28.3333C226.667 32.0906 228.159 35.6939 230.816 38.3507C233.473 41.0075 237.076 42.5 240.833 42.5ZM297.5 99.1667C300.302 99.1667 303.041 98.3358 305.371 96.7792C307.7 95.2225 309.516 93.01 310.588 90.4214C311.661 87.8327 311.941 84.9843 311.394 82.2362C310.848 79.4882 309.499 76.9639 307.517 74.9827C305.536 73.0014 303.012 71.6522 300.264 71.1056C297.516 70.5589 294.667 70.8395 292.079 71.9117C289.49 72.984 287.277 74.7997 285.721 77.1294C284.164 79.4591 283.333 82.1981 283.333 85C283.333 88.7572 284.826 92.3606 287.483 95.0173C290.139 97.6741 293.743 99.1667 297.5 99.1667ZM151.442 281.676C147.424 271.652 144.618 261.184 143.083 250.495C123.601 244.093 107.114 230.819 96.6993 213.153C86.285 195.486 82.6552 174.634 86.4875 154.488L136 204V215.333C136.026 220.793 138.041 226.056 141.667 230.138V170H124.667V147.333H147.333C150.337 147.326 153.215 146.129 155.339 144.006C157.463 141.882 158.659 139.003 158.667 136V113.333H181.333C187.083 113.309 192.608 111.1 196.79 107.154C200.972 103.209 203.499 97.8217 203.858 92.0833C217.008 97.9054 228.474 106.954 237.193 118.391L255 110.968L270.3 117.342C261.347 100.248 248.176 85.7244 232.036 75.1478C215.896 64.5712 197.322 58.2925 178.074 56.9071C158.827 55.5217 139.546 59.0755 122.057 67.2316C104.569 75.3877 89.4533 87.8756 78.1444 103.511C66.8354 119.147 59.7078 137.412 57.4372 156.575C55.1666 175.738 57.8283 195.163 65.1701 213.009C72.5118 230.854 84.2901 246.529 99.3883 258.546C114.486 270.563 132.404 278.525 151.442 281.676ZM99.1667 297.5C96.3648 297.5 93.6258 298.331 91.2961 299.888C88.9664 301.444 87.1506 303.657 86.0784 306.245C85.0061 308.834 84.7256 311.682 85.2722 314.43C85.8188 317.179 87.1681 319.703 89.1493 321.684C91.1306 323.665 93.6548 325.014 96.4029 325.561C99.151 326.108 101.999 325.827 104.588 324.755C107.177 323.683 109.389 321.867 110.946 319.537C112.502 317.208 113.333 314.469 113.333 311.667C113.333 307.909 111.841 304.306 109.184 301.649C106.527 298.993 102.924 297.5 99.1667 297.5ZM170 311.667C167.198 311.667 164.459 312.498 162.129 314.054C159.8 315.611 157.984 317.823 156.912 320.412C155.839 323.001 155.559 325.849 156.106 328.597C156.652 331.345 158.001 333.869 159.983 335.851C161.964 337.832 164.488 339.181 167.236 339.728C169.984 340.274 172.833 339.994 175.421 338.922C178.01 337.849 180.223 336.034 181.779 333.704C183.336 331.374 184.167 328.635 184.167 325.833C184.167 322.076 182.674 318.473 180.017 315.816C177.361 313.159 173.757 311.667 170 311.667ZM42.5 240.833C39.6981 240.833 36.9591 241.664 34.6294 243.221C32.2997 244.777 30.484 246.99 29.4117 249.579C28.3395 252.167 28.0589 255.016 28.6055 257.764C29.1522 260.512 30.5014 263.036 32.4827 265.017C34.4639 266.999 36.9882 268.348 39.7362 268.894C42.4843 269.441 45.3327 269.161 47.9214 268.088C50.51 267.016 52.7225 265.2 54.2792 262.871C55.8358 260.541 56.6667 257.802 56.6667 255C56.6667 251.243 55.1741 247.639 52.5174 244.983C49.8606 242.326 46.2572 240.833 42.5 240.833ZM14.1667 155.833C11.3648 155.833 8.62579 156.664 6.29609 158.221C3.9664 159.778 2.15062 161.99 1.07838 164.579C0.00613815 167.167 -0.274409 170.016 0.272215 172.764C0.818839 175.512 2.16808 178.036 4.14933 180.017C6.13057 181.999 8.65483 183.348 11.4029 183.894C14.151 184.441 16.9994 184.161 19.588 183.088C22.1766 182.016 24.3892 180.2 25.9458 177.871C27.5025 175.541 28.3333 172.802 28.3333 170C28.3333 166.243 26.8408 162.639 24.184 159.983C21.5273 157.326 17.9239 155.833 14.1667 155.833ZM340 177.083V231.809C339.273 256.564 330.624 280.433 315.324 299.908C300.024 319.382 278.88 333.435 255 340C231.158 333.563 210.02 319.625 194.712 300.245C179.405 280.866 170.74 257.075 170 232.39V177.083L255 141.667L340 177.083Z" fill="#024A7A"/>
</svg>
