<svg width="45" height="45" viewBox="0 0 45 45"  xmlns="http://www.w3.org/2000/svg">
<path d="M42.1287 0.875L32.5194 3.66969L36.41 1.03625C33.9537 1.59125 30.8506 2.67687 26.9506 4.42906L20.585 11.0656L22.8444 6.42969C20.66 7.64469 18.3444 9.2375 16.1131 11.1031L14.6319 17.1312L14.3131 12.6688C12.11 14.6938 10.0381 16.9438 8.3225 19.3156C6.51969 21.8 5.11062 24.425 4.40469 27.0406L1.76844 25.2781C2.00469 27.5 2.735 29.4312 3.93312 31.2031L0.78125 30.2375C1.4975 32.4406 2.66844 33.8656 4.64844 35.0188C3.53938 38.1406 3.01906 41.4031 2.46031 44.6562L4.18531 44.9469C6.18594 25.0063 20.3037 12.2938 33.0631 6.66125L33.71 8.29062C22.3006 13.4 13.4319 22.025 8.79125 34.4563C10.4881 34.4656 12.1475 34.2594 13.685 33.8656L14.1444 28.1562L15.3725 33.3594C16.3944 32.9844 17.3319 32.5344 18.1662 32.0094L16.2256 27.9313L19.3006 31.1937C20.0506 30.5938 20.6694 29.9187 21.1381 29.1781C23.9881 24.725 26.9694 20.3 32.8381 16.5969L28.5537 15.0781L35.1256 15.275C36.1944 14.7313 37.3194 14.0656 38.1725 13.4375L33.5131 13.0625L40.5162 11.4125C41.06 10.8687 41.5662 10.2969 42.0256 9.725C43.6475 7.66813 44.7444 5.52688 44.4819 3.57969C44.36 2.60562 43.7787 1.68969 42.8319 1.17687C42.5975 1.055 42.3444 0.947187 42.1287 0.875Z" fill="#024A7A"/>
</svg>
